M48
; DRILL file {KiCad (6.0.0)} date Thu Aug  4 21:37:48 2022
; FORMAT={-:-/ absolute / inch / decimal}
; #@! TF.CreationDate,2022-08-04T21:37:48+02:00
; #@! TF.GenerationSoftware,Kicad,Pcbnew,(6.0.0)
; #@! TF.FileFunction,Plated,1,2,PTH
FMAT,2
INCH
; #@! TA.AperFunction,Plated,PTH,ViaDrill
T1C0.0098
; #@! TA.AperFunction,Plated,PTH,ComponentDrill
T2C0.0236
; #@! TA.AperFunction,Plated,PTH,ComponentDrill
T3C0.0394
%
G90
G05
T1
X3.6073Y-3.6689
X3.628Y-3.6703
X3.6535Y-3.6752
X3.7675Y-3.4913
X3.7829Y-3.4439
X3.7982Y-3.3406
X4.5642Y-4.1256
X4.6016Y-3.833
X4.6118Y-3.748
T3
X3.7234Y-2.8439
X3.7234Y-2.9439
X3.7234Y-4.2612
X3.7234Y-4.3612
X3.8234Y-2.8439
X3.8234Y-2.9439
X3.8234Y-4.2612
X3.8234Y-4.3612
X3.9234Y-2.8439
X3.9234Y-2.9439
X3.9234Y-4.2612
X3.9234Y-4.3612
X4.0234Y-2.8439
X4.0234Y-2.9439
X4.0234Y-4.2612
X4.0234Y-4.3612
X4.1234Y-2.8439
X4.1234Y-2.9439
X4.1234Y-4.2612
X4.1234Y-4.3612
X4.2234Y-2.8439
X4.2234Y-2.9439
X4.2234Y-4.2612
X4.2234Y-4.3612
X4.3234Y-2.8439
X4.3234Y-2.9439
X4.3234Y-4.2612
X4.3234Y-4.3612
X4.4234Y-2.8439
X4.4234Y-2.9439
X4.4234Y-4.2612
X4.4234Y-4.3612
X4.5234Y-2.8439
X4.5234Y-2.9439
X4.5234Y-4.2612
X4.5234Y-4.3612
X4.6234Y-2.8439
X4.6234Y-2.9439
X4.6234Y-4.2612
X4.6234Y-4.3612
X5.4616Y-3.1526
X5.4616Y-3.2526
X5.4616Y-3.3526
X5.4616Y-3.4526
X5.4616Y-3.5526
X5.4616Y-3.6526
X5.4616Y-3.7526
X5.4616Y-3.8526
X5.4616Y-3.9526
X5.4616Y-4.0526
X5.5616Y-3.1526
X5.5616Y-3.2526
X5.5616Y-3.3526
X5.5616Y-3.4526
X5.5616Y-3.5526
X5.5616Y-3.6526
X5.5616Y-3.7526
X5.5616Y-3.8526
X5.5616Y-3.9526
X5.5616Y-4.0526
T2
G00X2.836Y-3.8983
M15
G01X2.8045Y-3.8983
M16
G05
G00X2.836Y-4.2385
M15
G01X2.8045Y-4.2385
M16
G05
G00X3.0065Y-3.8983
M15
G01X2.9632Y-3.8983
M16
G05
G00X3.0065Y-4.2385
M15
G01X2.9632Y-4.2385
M16
G05
T0
M30
