%TF.GenerationSoftware,KiCad,Pcbnew,(6.0.0)*%
%TF.CreationDate,2022-08-04T21:46:00+02:00*%
%TF.ProjectId,TINY-FPGA-BOARD,54494e59-2d46-4504-9741-2d424f415244,rev?*%
%TF.SameCoordinates,Original*%
%TF.FileFunction,Copper,L3,Inr*%
%TF.FilePolarity,Positive*%
%FSLAX46Y46*%
G04 Gerber Fmt 4.6, Leading zero omitted, Abs format (unit mm)*
G04 Created by KiCad (PCBNEW (6.0.0)) date 2022-08-04 21:46:00*
%MOMM*%
%LPD*%
G01*
G04 APERTURE LIST*
%TA.AperFunction,ComponentPad*%
%ADD10O,2.000000X1.000000*%
%TD*%
%TA.AperFunction,ComponentPad*%
%ADD11O,2.100000X1.050000*%
%TD*%
%TA.AperFunction,ComponentPad*%
%ADD12R,1.700000X1.700000*%
%TD*%
%TA.AperFunction,ComponentPad*%
%ADD13O,1.700000X1.700000*%
%TD*%
%TA.AperFunction,ViaPad*%
%ADD14C,0.400000*%
%TD*%
G04 APERTURE END LIST*
D10*
%TO.N,GND*%
%TO.C,J1*%
X71635000Y-99017500D03*
X71635000Y-107657500D03*
D11*
X75815000Y-99017500D03*
X75815000Y-107657500D03*
%TD*%
D12*
%TO.N,+3V3*%
%TO.C,J3*%
X138725000Y-80075000D03*
D13*
X141265000Y-80075000D03*
%TO.N,/FPGA IOs  BANKS/IO168*%
X138725000Y-82615000D03*
%TO.N,/FPGA IOs  BANKS/IO170*%
X141265000Y-82615000D03*
%TO.N,/FPGA IOs  BANKS/IO161*%
X138725000Y-85155000D03*
%TO.N,/FPGA IOs  BANKS/IO154*%
X141265000Y-85155000D03*
%TO.N,/FPGA IOs  BANKS/IO160*%
X138725000Y-87695000D03*
%TO.N,/FPGA IOs  BANKS/IO141*%
X141265000Y-87695000D03*
%TO.N,/FPGA IOs  BANKS/IO152*%
X138725000Y-90235000D03*
%TO.N,/FPGA IOs  BANKS/IO136*%
X141265000Y-90235000D03*
%TO.N,/FPGA IOs  BANKS/IO148*%
X138725000Y-92775000D03*
%TO.N,/FPGA IOs  BANKS/IO120*%
X141265000Y-92775000D03*
%TO.N,/FPGA IOs  BANKS/IO140*%
X138725000Y-95315000D03*
%TO.N,/FPGA IOs  BANKS/IO116*%
X141265000Y-95315000D03*
%TO.N,/FPGA IOs  BANKS/IO119*%
X138725000Y-97855000D03*
%TO.N,/FPGA IOs  BANKS/IO128*%
X141265000Y-97855000D03*
%TO.N,/FPGA IOs  BANKS/IO114*%
X138725000Y-100395000D03*
%TO.N,/FPGA IOs  BANKS/IO104*%
X141265000Y-100395000D03*
%TO.N,GND*%
X138725000Y-102935000D03*
X141265000Y-102935000D03*
%TD*%
D12*
%TO.N,+3V3*%
%TO.C,J4*%
X94575000Y-74775000D03*
D13*
X94575000Y-72235000D03*
%TO.N,/FPGA IOs  BANKS/IO225*%
X97115000Y-74775000D03*
%TO.N,/FPGA IOs  BANKS/IO221*%
X97115000Y-72235000D03*
%TO.N,/FPGA IOs  BANKS/IO222*%
X99655000Y-74775000D03*
%TO.N,/FPGA IOs  BANKS/IO219*%
X99655000Y-72235000D03*
%TO.N,/FPGA IOs  BANKS/IO223*%
X102195000Y-74775000D03*
%TO.N,/FPGA IOs  BANKS/IO208*%
X102195000Y-72235000D03*
%TO.N,/FPGA IOs  BANKS/IO211*%
X104735000Y-74775000D03*
%TO.N,/FPGA IOs  BANKS/IO198*%
X104735000Y-72235000D03*
%TO.N,/FPGA IOs  BANKS/IO207*%
X107275000Y-74775000D03*
%TO.N,/FPGA IOs  BANKS/IO197*%
X107275000Y-72235000D03*
%TO.N,/FPGA IOs  BANKS/IO206*%
X109815000Y-74775000D03*
%TO.N,/FPGA IOs  BANKS/IO177*%
X109815000Y-72235000D03*
%TO.N,/FPGA IOs  BANKS/IO192*%
X112355000Y-74775000D03*
%TO.N,/FPGA IOs  BANKS/IO174*%
X112355000Y-72235000D03*
%TO.N,/FPGA IOs  BANKS/IO190*%
X114895000Y-74775000D03*
%TO.N,/FPGA IOs  BANKS/IO178*%
X114895000Y-72235000D03*
%TO.N,GND*%
X117435000Y-74775000D03*
X117435000Y-72235000D03*
%TD*%
D12*
%TO.N,+3V3*%
%TO.C,J5*%
X94575000Y-110775000D03*
D13*
X94575000Y-108235000D03*
%TO.N,/FPGA IOs  BANKS/IO56*%
X97115000Y-110775000D03*
%TO.N,unconnected-(J5-Pad4)*%
X97115000Y-108235000D03*
%TO.N,/FPGA IOs  BANKS/IO61*%
X99655000Y-110775000D03*
%TO.N,unconnected-(J5-Pad6)*%
X99655000Y-108235000D03*
%TO.N,/FPGA IOs  BANKS/IO71*%
X102195000Y-110775000D03*
%TO.N,unconnected-(J5-Pad8)*%
X102195000Y-108235000D03*
%TO.N,/FPGA IOs  BANKS/IO72*%
X104735000Y-110775000D03*
%TO.N,/FPGA IOs  BANKS/IO63*%
X104735000Y-108235000D03*
%TO.N,/FPGA IOs  BANKS/IO181*%
X107275000Y-110775000D03*
%TO.N,/FPGA IOs  BANKS/IO73*%
X107275000Y-108235000D03*
%TO.N,/FPGA IOs  BANKS/IO94*%
X109815000Y-110775000D03*
%TO.N,/FPGA IOs  BANKS/IO79*%
X109815000Y-108235000D03*
%TO.N,/FPGA IOs  BANKS/IO103*%
X112355000Y-110775000D03*
%TO.N,/FPGA IOs  BANKS/IO82*%
X112355000Y-108235000D03*
%TO.N,/FPGA IOs  BANKS/IO115*%
X114895000Y-110775000D03*
%TO.N,/FPGA IOs  BANKS/IO89*%
X114895000Y-108235000D03*
%TO.N,GND*%
X117435000Y-110775000D03*
X117435000Y-108235000D03*
%TD*%
D14*
%TO.N,/MOSI*%
X117140000Y-95200000D03*
%TO.N,/MISO*%
X115930000Y-104790000D03*
X116880000Y-97359228D03*
%TO.N,/USB\u002C SPI\u002C RS232 Interface/FT_EECS*%
X95695000Y-88680000D03*
X91624576Y-93191320D03*
%TO.N,/USB\u002C SPI\u002C RS232 Interface/FT_EECLK*%
X96085000Y-87475000D03*
X92150000Y-93225000D03*
%TO.N,/USB\u002C SPI\u002C RS232 Interface/FT_DATA*%
X96475000Y-84850000D03*
X92800000Y-93350000D03*
%TD*%
M02*
