%TF.GenerationSoftware,KiCad,Pcbnew,(6.0.0)*%
%TF.CreationDate,2022-08-04T21:46:01+02:00*%
%TF.ProjectId,TINY-FPGA-BOARD,54494e59-2d46-4504-9741-2d424f415244,rev?*%
%TF.SameCoordinates,Original*%
%TF.FileFunction,Soldermask,Bot*%
%TF.FilePolarity,Negative*%
%FSLAX46Y46*%
G04 Gerber Fmt 4.6, Leading zero omitted, Abs format (unit mm)*
G04 Created by KiCad (PCBNEW (6.0.0)) date 2022-08-04 21:46:01*
%MOMM*%
%LPD*%
G01*
G04 APERTURE LIST*
G04 Aperture macros list*
%AMRoundRect*
0 Rectangle with rounded corners*
0 $1 Rounding radius*
0 $2 $3 $4 $5 $6 $7 $8 $9 X,Y pos of 4 corners*
0 Add a 4 corners polygon primitive as box body*
4,1,4,$2,$3,$4,$5,$6,$7,$8,$9,$2,$3,0*
0 Add four circle primitives for the rounded corners*
1,1,$1+$1,$2,$3*
1,1,$1+$1,$4,$5*
1,1,$1+$1,$6,$7*
1,1,$1+$1,$8,$9*
0 Add four rect primitives between the rounded corners*
20,1,$1+$1,$2,$3,$4,$5,0*
20,1,$1+$1,$4,$5,$6,$7,0*
20,1,$1+$1,$6,$7,$8,$9,0*
20,1,$1+$1,$8,$9,$2,$3,0*%
G04 Aperture macros list end*
%ADD10C,0.650000*%
%ADD11O,2.000000X1.000000*%
%ADD12O,2.100000X1.050000*%
%ADD13R,1.700000X1.700000*%
%ADD14O,1.700000X1.700000*%
%ADD15RoundRect,0.225000X0.225000X0.250000X-0.225000X0.250000X-0.225000X-0.250000X0.225000X-0.250000X0*%
%ADD16RoundRect,0.225000X-0.250000X0.225000X-0.250000X-0.225000X0.250000X-0.225000X0.250000X0.225000X0*%
%ADD17RoundRect,0.225000X0.250000X-0.225000X0.250000X0.225000X-0.250000X0.225000X-0.250000X-0.225000X0*%
%ADD18RoundRect,0.225000X-0.225000X-0.250000X0.225000X-0.250000X0.225000X0.250000X-0.225000X0.250000X0*%
G04 APERTURE END LIST*
D10*
%TO.C,J1*%
X75315000Y-100447500D03*
X75315000Y-106227500D03*
D11*
X71635000Y-99017500D03*
X71635000Y-107657500D03*
D12*
X75815000Y-99017500D03*
X75815000Y-107657500D03*
%TD*%
D13*
%TO.C,J3*%
X138725000Y-80075000D03*
D14*
X141265000Y-80075000D03*
X138725000Y-82615000D03*
X141265000Y-82615000D03*
X138725000Y-85155000D03*
X141265000Y-85155000D03*
X138725000Y-87695000D03*
X141265000Y-87695000D03*
X138725000Y-90235000D03*
X141265000Y-90235000D03*
X138725000Y-92775000D03*
X141265000Y-92775000D03*
X138725000Y-95315000D03*
X141265000Y-95315000D03*
X138725000Y-97855000D03*
X141265000Y-97855000D03*
X138725000Y-100395000D03*
X141265000Y-100395000D03*
X138725000Y-102935000D03*
X141265000Y-102935000D03*
%TD*%
D13*
%TO.C,J4*%
X94575000Y-74775000D03*
D14*
X94575000Y-72235000D03*
X97115000Y-74775000D03*
X97115000Y-72235000D03*
X99655000Y-74775000D03*
X99655000Y-72235000D03*
X102195000Y-74775000D03*
X102195000Y-72235000D03*
X104735000Y-74775000D03*
X104735000Y-72235000D03*
X107275000Y-74775000D03*
X107275000Y-72235000D03*
X109815000Y-74775000D03*
X109815000Y-72235000D03*
X112355000Y-74775000D03*
X112355000Y-72235000D03*
X114895000Y-74775000D03*
X114895000Y-72235000D03*
X117435000Y-74775000D03*
X117435000Y-72235000D03*
%TD*%
D13*
%TO.C,J5*%
X94575000Y-110775000D03*
D14*
X94575000Y-108235000D03*
X97115000Y-110775000D03*
X97115000Y-108235000D03*
X99655000Y-110775000D03*
X99655000Y-108235000D03*
X102195000Y-110775000D03*
X102195000Y-108235000D03*
X104735000Y-110775000D03*
X104735000Y-108235000D03*
X107275000Y-110775000D03*
X107275000Y-108235000D03*
X109815000Y-110775000D03*
X109815000Y-108235000D03*
X112355000Y-110775000D03*
X112355000Y-108235000D03*
X114895000Y-110775000D03*
X114895000Y-108235000D03*
X117435000Y-110775000D03*
X117435000Y-108235000D03*
%TD*%
D15*
%TO.C,C44*%
X112875000Y-93100000D03*
X111325000Y-93100000D03*
%TD*%
D16*
%TO.C,C43*%
X116100000Y-94025000D03*
X116100000Y-95575000D03*
%TD*%
D15*
%TO.C,C3*%
X114075000Y-94800000D03*
X112525000Y-94800000D03*
%TD*%
%TO.C,C41*%
X116375000Y-92400000D03*
X114825000Y-92400000D03*
%TD*%
%TO.C,C45*%
X112675000Y-91550000D03*
X111125000Y-91550000D03*
%TD*%
D17*
%TO.C,C11*%
X120450000Y-97075000D03*
X120450000Y-95525000D03*
%TD*%
D18*
%TO.C,C8*%
X117625000Y-94000000D03*
X119175000Y-94000000D03*
%TD*%
D17*
%TO.C,C6*%
X113550000Y-90025000D03*
X113550000Y-88475000D03*
%TD*%
%TO.C,C10*%
X116750000Y-90025000D03*
X116750000Y-88475000D03*
%TD*%
%TO.C,C39*%
X115150000Y-90025000D03*
X115150000Y-88475000D03*
%TD*%
%TO.C,C9*%
X118350000Y-89600000D03*
X118350000Y-88050000D03*
%TD*%
M02*
