%TF.GenerationSoftware,KiCad,Pcbnew,(6.0.0)*%
%TF.CreationDate,2022-08-04T21:46:00+02:00*%
%TF.ProjectId,TINY-FPGA-BOARD,54494e59-2d46-4504-9741-2d424f415244,rev?*%
%TF.SameCoordinates,Original*%
%TF.FileFunction,Legend,Top*%
%TF.FilePolarity,Positive*%
%FSLAX46Y46*%
G04 Gerber Fmt 4.6, Leading zero omitted, Abs format (unit mm)*
G04 Created by KiCad (PCBNEW (6.0.0)) date 2022-08-04 21:46:00*
%MOMM*%
%LPD*%
G01*
G04 APERTURE LIST*
%ADD10C,0.100000*%
%ADD11C,0.150000*%
%ADD12C,0.120000*%
%ADD13C,0.127000*%
%ADD14C,0.300000*%
%ADD15C,0.200000*%
G04 APERTURE END LIST*
D10*
X158383333Y-83483333D02*
X158350000Y-83450000D01*
X158316666Y-83383333D01*
X158316666Y-83216666D01*
X158350000Y-83150000D01*
X158383333Y-83116666D01*
X158450000Y-83083333D01*
X158516666Y-83083333D01*
X158616666Y-83116666D01*
X159016666Y-83516666D01*
X159016666Y-83083333D01*
X158383333Y-82816666D02*
X158350000Y-82783333D01*
X158316666Y-82716666D01*
X158316666Y-82550000D01*
X158350000Y-82483333D01*
X158383333Y-82450000D01*
X158450000Y-82416666D01*
X158516666Y-82416666D01*
X158616666Y-82450000D01*
X159016666Y-82850000D01*
X159016666Y-82416666D01*
X158950000Y-82116666D02*
X158983333Y-82083333D01*
X159016666Y-82116666D01*
X158983333Y-82150000D01*
X158950000Y-82116666D01*
X159016666Y-82116666D01*
X158316666Y-81450000D02*
X158316666Y-81783333D01*
X158650000Y-81816666D01*
X158616666Y-81783333D01*
X158583333Y-81716666D01*
X158583333Y-81550000D01*
X158616666Y-81483333D01*
X158650000Y-81450000D01*
X158716666Y-81416666D01*
X158883333Y-81416666D01*
X158950000Y-81450000D01*
X158983333Y-81483333D01*
X159016666Y-81550000D01*
X159016666Y-81716666D01*
X158983333Y-81783333D01*
X158950000Y-81816666D01*
X158316666Y-80983333D02*
X158316666Y-80916666D01*
X158350000Y-80850000D01*
X158383333Y-80816666D01*
X158450000Y-80783333D01*
X158583333Y-80750000D01*
X158750000Y-80750000D01*
X158883333Y-80783333D01*
X158950000Y-80816666D01*
X158983333Y-80850000D01*
X159016666Y-80916666D01*
X159016666Y-80983333D01*
X158983333Y-81050000D01*
X158950000Y-81083333D01*
X158883333Y-81116666D01*
X158750000Y-81150000D01*
X158583333Y-81150000D01*
X158450000Y-81116666D01*
X158383333Y-81083333D01*
X158350000Y-81050000D01*
X158316666Y-80983333D01*
X158316666Y-80316666D02*
X158316666Y-80250000D01*
X158350000Y-80183333D01*
X158383333Y-80150000D01*
X158450000Y-80116666D01*
X158583333Y-80083333D01*
X158750000Y-80083333D01*
X158883333Y-80116666D01*
X158950000Y-80150000D01*
X158983333Y-80183333D01*
X159016666Y-80250000D01*
X159016666Y-80316666D01*
X158983333Y-80383333D01*
X158950000Y-80416666D01*
X158883333Y-80450000D01*
X158750000Y-80483333D01*
X158583333Y-80483333D01*
X158450000Y-80450000D01*
X158383333Y-80416666D01*
X158350000Y-80383333D01*
X158316666Y-80316666D01*
X158316666Y-79650000D02*
X158316666Y-79583333D01*
X158350000Y-79516666D01*
X158383333Y-79483333D01*
X158450000Y-79450000D01*
X158583333Y-79416666D01*
X158750000Y-79416666D01*
X158883333Y-79450000D01*
X158950000Y-79483333D01*
X158983333Y-79516666D01*
X159016666Y-79583333D01*
X159016666Y-79650000D01*
X158983333Y-79716666D01*
X158950000Y-79750000D01*
X158883333Y-79783333D01*
X158750000Y-79816666D01*
X158583333Y-79816666D01*
X158450000Y-79783333D01*
X158383333Y-79750000D01*
X158350000Y-79716666D01*
X158316666Y-79650000D01*
X159016666Y-78583333D02*
X158550000Y-78583333D01*
X158616666Y-78583333D02*
X158583333Y-78550000D01*
X158550000Y-78483333D01*
X158550000Y-78383333D01*
X158583333Y-78316666D01*
X158650000Y-78283333D01*
X159016666Y-78283333D01*
X158650000Y-78283333D02*
X158583333Y-78250000D01*
X158550000Y-78183333D01*
X158550000Y-78083333D01*
X158583333Y-78016666D01*
X158650000Y-77983333D01*
X159016666Y-77983333D01*
X159016666Y-77650000D02*
X158550000Y-77650000D01*
X158616666Y-77650000D02*
X158583333Y-77616666D01*
X158550000Y-77550000D01*
X158550000Y-77450000D01*
X158583333Y-77383333D01*
X158650000Y-77350000D01*
X159016666Y-77350000D01*
X158650000Y-77350000D02*
X158583333Y-77316666D01*
X158550000Y-77250000D01*
X158550000Y-77150000D01*
X158583333Y-77083333D01*
X158650000Y-77050000D01*
X159016666Y-77050000D01*
D11*
X146500000Y-69000000D02*
X160086420Y-69000000D01*
X146500000Y-91500000D02*
X160086420Y-91500000D01*
X159500000Y-69000000D02*
X159500000Y-76483333D01*
X159500000Y-84016666D02*
X159500000Y-91500000D01*
X159500000Y-69000000D02*
X158913579Y-70126504D01*
X159500000Y-69000000D02*
X160086421Y-70126504D01*
X159500000Y-91500000D02*
X160086421Y-90373496D01*
X159500000Y-91500000D02*
X158913579Y-90373496D01*
D10*
%TO.C,C12*%
X118870000Y-104305000D02*
X118836666Y-104338333D01*
X118736666Y-104371666D01*
X118670000Y-104371666D01*
X118570000Y-104338333D01*
X118503333Y-104271666D01*
X118470000Y-104205000D01*
X118436666Y-104071666D01*
X118436666Y-103971666D01*
X118470000Y-103838333D01*
X118503333Y-103771666D01*
X118570000Y-103705000D01*
X118670000Y-103671666D01*
X118736666Y-103671666D01*
X118836666Y-103705000D01*
X118870000Y-103738333D01*
X119536666Y-104371666D02*
X119136666Y-104371666D01*
X119336666Y-104371666D02*
X119336666Y-103671666D01*
X119270000Y-103771666D01*
X119203333Y-103838333D01*
X119136666Y-103871666D01*
X119803333Y-103738333D02*
X119836666Y-103705000D01*
X119903333Y-103671666D01*
X120070000Y-103671666D01*
X120136666Y-103705000D01*
X120170000Y-103738333D01*
X120203333Y-103805000D01*
X120203333Y-103871666D01*
X120170000Y-103971666D01*
X119770000Y-104371666D01*
X120203333Y-104371666D01*
%TO.C,R6*%
X102658333Y-83941666D02*
X102425000Y-83608333D01*
X102258333Y-83941666D02*
X102258333Y-83241666D01*
X102525000Y-83241666D01*
X102591666Y-83275000D01*
X102625000Y-83308333D01*
X102658333Y-83375000D01*
X102658333Y-83475000D01*
X102625000Y-83541666D01*
X102591666Y-83575000D01*
X102525000Y-83608333D01*
X102258333Y-83608333D01*
X103258333Y-83241666D02*
X103125000Y-83241666D01*
X103058333Y-83275000D01*
X103025000Y-83308333D01*
X102958333Y-83408333D01*
X102925000Y-83541666D01*
X102925000Y-83808333D01*
X102958333Y-83875000D01*
X102991666Y-83908333D01*
X103058333Y-83941666D01*
X103191666Y-83941666D01*
X103258333Y-83908333D01*
X103291666Y-83875000D01*
X103325000Y-83808333D01*
X103325000Y-83641666D01*
X103291666Y-83575000D01*
X103258333Y-83541666D01*
X103191666Y-83508333D01*
X103058333Y-83508333D01*
X102991666Y-83541666D01*
X102958333Y-83575000D01*
X102925000Y-83641666D01*
%TO.C,R10*%
X99966666Y-83500000D02*
X99633333Y-83733333D01*
X99966666Y-83900000D02*
X99266666Y-83900000D01*
X99266666Y-83633333D01*
X99300000Y-83566666D01*
X99333333Y-83533333D01*
X99400000Y-83500000D01*
X99500000Y-83500000D01*
X99566666Y-83533333D01*
X99600000Y-83566666D01*
X99633333Y-83633333D01*
X99633333Y-83900000D01*
X99966666Y-82833333D02*
X99966666Y-83233333D01*
X99966666Y-83033333D02*
X99266666Y-83033333D01*
X99366666Y-83100000D01*
X99433333Y-83166666D01*
X99466666Y-83233333D01*
X99266666Y-82400000D02*
X99266666Y-82333333D01*
X99300000Y-82266666D01*
X99333333Y-82233333D01*
X99400000Y-82200000D01*
X99533333Y-82166666D01*
X99700000Y-82166666D01*
X99833333Y-82200000D01*
X99900000Y-82233333D01*
X99933333Y-82266666D01*
X99966666Y-82333333D01*
X99966666Y-82400000D01*
X99933333Y-82466666D01*
X99900000Y-82500000D01*
X99833333Y-82533333D01*
X99700000Y-82566666D01*
X99533333Y-82566666D01*
X99400000Y-82533333D01*
X99333333Y-82500000D01*
X99300000Y-82466666D01*
X99266666Y-82400000D01*
%TO.C,C14*%
X114445000Y-82725000D02*
X114478333Y-82758333D01*
X114511666Y-82858333D01*
X114511666Y-82925000D01*
X114478333Y-83025000D01*
X114411666Y-83091666D01*
X114345000Y-83125000D01*
X114211666Y-83158333D01*
X114111666Y-83158333D01*
X113978333Y-83125000D01*
X113911666Y-83091666D01*
X113845000Y-83025000D01*
X113811666Y-82925000D01*
X113811666Y-82858333D01*
X113845000Y-82758333D01*
X113878333Y-82725000D01*
X114511666Y-82058333D02*
X114511666Y-82458333D01*
X114511666Y-82258333D02*
X113811666Y-82258333D01*
X113911666Y-82325000D01*
X113978333Y-82391666D01*
X114011666Y-82458333D01*
X114045000Y-81458333D02*
X114511666Y-81458333D01*
X113778333Y-81625000D02*
X114278333Y-81791666D01*
X114278333Y-81358333D01*
%TO.C,R46*%
X105425000Y-83066666D02*
X105191666Y-82733333D01*
X105025000Y-83066666D02*
X105025000Y-82366666D01*
X105291666Y-82366666D01*
X105358333Y-82400000D01*
X105391666Y-82433333D01*
X105425000Y-82500000D01*
X105425000Y-82600000D01*
X105391666Y-82666666D01*
X105358333Y-82700000D01*
X105291666Y-82733333D01*
X105025000Y-82733333D01*
X106025000Y-82600000D02*
X106025000Y-83066666D01*
X105858333Y-82333333D02*
X105691666Y-82833333D01*
X106125000Y-82833333D01*
X106691666Y-82366666D02*
X106558333Y-82366666D01*
X106491666Y-82400000D01*
X106458333Y-82433333D01*
X106391666Y-82533333D01*
X106358333Y-82666666D01*
X106358333Y-82933333D01*
X106391666Y-83000000D01*
X106425000Y-83033333D01*
X106491666Y-83066666D01*
X106625000Y-83066666D01*
X106691666Y-83033333D01*
X106725000Y-83000000D01*
X106758333Y-82933333D01*
X106758333Y-82766666D01*
X106725000Y-82700000D01*
X106691666Y-82666666D01*
X106625000Y-82633333D01*
X106491666Y-82633333D01*
X106425000Y-82666666D01*
X106391666Y-82700000D01*
X106358333Y-82766666D01*
%TO.C,J2*%
X74566666Y-80033333D02*
X75066666Y-80033333D01*
X75166666Y-80066666D01*
X75233333Y-80133333D01*
X75266666Y-80233333D01*
X75266666Y-80300000D01*
X74633333Y-79733333D02*
X74600000Y-79700000D01*
X74566666Y-79633333D01*
X74566666Y-79466666D01*
X74600000Y-79400000D01*
X74633333Y-79366666D01*
X74700000Y-79333333D01*
X74766666Y-79333333D01*
X74866666Y-79366666D01*
X75266666Y-79766666D01*
X75266666Y-79333333D01*
%TO.C,R4*%
X120673333Y-103936666D02*
X120440000Y-103603333D01*
X120273333Y-103936666D02*
X120273333Y-103236666D01*
X120540000Y-103236666D01*
X120606666Y-103270000D01*
X120640000Y-103303333D01*
X120673333Y-103370000D01*
X120673333Y-103470000D01*
X120640000Y-103536666D01*
X120606666Y-103570000D01*
X120540000Y-103603333D01*
X120273333Y-103603333D01*
X121273333Y-103470000D02*
X121273333Y-103936666D01*
X121106666Y-103203333D02*
X120940000Y-103703333D01*
X121373333Y-103703333D01*
%TO.C,C28*%
X80380000Y-107150000D02*
X80413333Y-107183333D01*
X80446666Y-107283333D01*
X80446666Y-107350000D01*
X80413333Y-107450000D01*
X80346666Y-107516666D01*
X80280000Y-107550000D01*
X80146666Y-107583333D01*
X80046666Y-107583333D01*
X79913333Y-107550000D01*
X79846666Y-107516666D01*
X79780000Y-107450000D01*
X79746666Y-107350000D01*
X79746666Y-107283333D01*
X79780000Y-107183333D01*
X79813333Y-107150000D01*
X79813333Y-106883333D02*
X79780000Y-106850000D01*
X79746666Y-106783333D01*
X79746666Y-106616666D01*
X79780000Y-106550000D01*
X79813333Y-106516666D01*
X79880000Y-106483333D01*
X79946666Y-106483333D01*
X80046666Y-106516666D01*
X80446666Y-106916666D01*
X80446666Y-106483333D01*
X80046666Y-106083333D02*
X80013333Y-106150000D01*
X79980000Y-106183333D01*
X79913333Y-106216666D01*
X79880000Y-106216666D01*
X79813333Y-106183333D01*
X79780000Y-106150000D01*
X79746666Y-106083333D01*
X79746666Y-105950000D01*
X79780000Y-105883333D01*
X79813333Y-105850000D01*
X79880000Y-105816666D01*
X79913333Y-105816666D01*
X79980000Y-105850000D01*
X80013333Y-105883333D01*
X80046666Y-105950000D01*
X80046666Y-106083333D01*
X80080000Y-106150000D01*
X80113333Y-106183333D01*
X80180000Y-106216666D01*
X80313333Y-106216666D01*
X80380000Y-106183333D01*
X80413333Y-106150000D01*
X80446666Y-106083333D01*
X80446666Y-105950000D01*
X80413333Y-105883333D01*
X80380000Y-105850000D01*
X80313333Y-105816666D01*
X80180000Y-105816666D01*
X80113333Y-105850000D01*
X80080000Y-105883333D01*
X80046666Y-105950000D01*
%TO.C,C36*%
X73800000Y-96350000D02*
X73766666Y-96383333D01*
X73666666Y-96416666D01*
X73600000Y-96416666D01*
X73500000Y-96383333D01*
X73433333Y-96316666D01*
X73400000Y-96250000D01*
X73366666Y-96116666D01*
X73366666Y-96016666D01*
X73400000Y-95883333D01*
X73433333Y-95816666D01*
X73500000Y-95750000D01*
X73600000Y-95716666D01*
X73666666Y-95716666D01*
X73766666Y-95750000D01*
X73800000Y-95783333D01*
X74033333Y-95716666D02*
X74466666Y-95716666D01*
X74233333Y-95983333D01*
X74333333Y-95983333D01*
X74400000Y-96016666D01*
X74433333Y-96050000D01*
X74466666Y-96116666D01*
X74466666Y-96283333D01*
X74433333Y-96350000D01*
X74400000Y-96383333D01*
X74333333Y-96416666D01*
X74133333Y-96416666D01*
X74066666Y-96383333D01*
X74033333Y-96350000D01*
X75066666Y-95716666D02*
X74933333Y-95716666D01*
X74866666Y-95750000D01*
X74833333Y-95783333D01*
X74766666Y-95883333D01*
X74733333Y-96016666D01*
X74733333Y-96283333D01*
X74766666Y-96350000D01*
X74800000Y-96383333D01*
X74866666Y-96416666D01*
X75000000Y-96416666D01*
X75066666Y-96383333D01*
X75100000Y-96350000D01*
X75133333Y-96283333D01*
X75133333Y-96116666D01*
X75100000Y-96050000D01*
X75066666Y-96016666D01*
X75000000Y-95983333D01*
X74866666Y-95983333D01*
X74800000Y-96016666D01*
X74766666Y-96050000D01*
X74733333Y-96116666D01*
%TO.C,R22*%
X91341666Y-106675000D02*
X91008333Y-106908333D01*
X91341666Y-107075000D02*
X90641666Y-107075000D01*
X90641666Y-106808333D01*
X90675000Y-106741666D01*
X90708333Y-106708333D01*
X90775000Y-106675000D01*
X90875000Y-106675000D01*
X90941666Y-106708333D01*
X90975000Y-106741666D01*
X91008333Y-106808333D01*
X91008333Y-107075000D01*
X90708333Y-106408333D02*
X90675000Y-106375000D01*
X90641666Y-106308333D01*
X90641666Y-106141666D01*
X90675000Y-106075000D01*
X90708333Y-106041666D01*
X90775000Y-106008333D01*
X90841666Y-106008333D01*
X90941666Y-106041666D01*
X91341666Y-106441666D01*
X91341666Y-106008333D01*
X90708333Y-105741666D02*
X90675000Y-105708333D01*
X90641666Y-105641666D01*
X90641666Y-105475000D01*
X90675000Y-105408333D01*
X90708333Y-105375000D01*
X90775000Y-105341666D01*
X90841666Y-105341666D01*
X90941666Y-105375000D01*
X91341666Y-105775000D01*
X91341666Y-105341666D01*
%TO.C,U3*%
X96083333Y-83808333D02*
X96083333Y-83241666D01*
X96050000Y-83175000D01*
X96016666Y-83141666D01*
X95950000Y-83108333D01*
X95816666Y-83108333D01*
X95750000Y-83141666D01*
X95716666Y-83175000D01*
X95683333Y-83241666D01*
X95683333Y-83808333D01*
X95416666Y-83808333D02*
X94983333Y-83808333D01*
X95216666Y-83541666D01*
X95116666Y-83541666D01*
X95050000Y-83508333D01*
X95016666Y-83475000D01*
X94983333Y-83408333D01*
X94983333Y-83241666D01*
X95016666Y-83175000D01*
X95050000Y-83141666D01*
X95116666Y-83108333D01*
X95316666Y-83108333D01*
X95383333Y-83141666D01*
X95416666Y-83175000D01*
%TO.C,C1*%
X135978333Y-89860000D02*
X135945000Y-89893333D01*
X135845000Y-89926666D01*
X135778333Y-89926666D01*
X135678333Y-89893333D01*
X135611666Y-89826666D01*
X135578333Y-89760000D01*
X135545000Y-89626666D01*
X135545000Y-89526666D01*
X135578333Y-89393333D01*
X135611666Y-89326666D01*
X135678333Y-89260000D01*
X135778333Y-89226666D01*
X135845000Y-89226666D01*
X135945000Y-89260000D01*
X135978333Y-89293333D01*
X136645000Y-89926666D02*
X136245000Y-89926666D01*
X136445000Y-89926666D02*
X136445000Y-89226666D01*
X136378333Y-89326666D01*
X136311666Y-89393333D01*
X136245000Y-89426666D01*
%TO.C,J1*%
X77586666Y-101645833D02*
X78086666Y-101645833D01*
X78186666Y-101679166D01*
X78253333Y-101745833D01*
X78286666Y-101845833D01*
X78286666Y-101912500D01*
X78286666Y-100945833D02*
X78286666Y-101345833D01*
X78286666Y-101145833D02*
X77586666Y-101145833D01*
X77686666Y-101212500D01*
X77753333Y-101279166D01*
X77786666Y-101345833D01*
%TO.C,SW1*%
X137328333Y-109258333D02*
X137361666Y-109158333D01*
X137361666Y-108991666D01*
X137328333Y-108925000D01*
X137295000Y-108891666D01*
X137228333Y-108858333D01*
X137161666Y-108858333D01*
X137095000Y-108891666D01*
X137061666Y-108925000D01*
X137028333Y-108991666D01*
X136995000Y-109125000D01*
X136961666Y-109191666D01*
X136928333Y-109225000D01*
X136861666Y-109258333D01*
X136795000Y-109258333D01*
X136728333Y-109225000D01*
X136695000Y-109191666D01*
X136661666Y-109125000D01*
X136661666Y-108958333D01*
X136695000Y-108858333D01*
X136661666Y-108625000D02*
X137361666Y-108458333D01*
X136861666Y-108325000D01*
X137361666Y-108191666D01*
X136661666Y-108025000D01*
X137361666Y-107391666D02*
X137361666Y-107791666D01*
X137361666Y-107591666D02*
X136661666Y-107591666D01*
X136761666Y-107658333D01*
X136828333Y-107725000D01*
X136861666Y-107791666D01*
%TO.C,C26*%
X81750000Y-80300000D02*
X81783333Y-80333333D01*
X81816666Y-80433333D01*
X81816666Y-80500000D01*
X81783333Y-80600000D01*
X81716666Y-80666666D01*
X81650000Y-80700000D01*
X81516666Y-80733333D01*
X81416666Y-80733333D01*
X81283333Y-80700000D01*
X81216666Y-80666666D01*
X81150000Y-80600000D01*
X81116666Y-80500000D01*
X81116666Y-80433333D01*
X81150000Y-80333333D01*
X81183333Y-80300000D01*
X81183333Y-80033333D02*
X81150000Y-80000000D01*
X81116666Y-79933333D01*
X81116666Y-79766666D01*
X81150000Y-79700000D01*
X81183333Y-79666666D01*
X81250000Y-79633333D01*
X81316666Y-79633333D01*
X81416666Y-79666666D01*
X81816666Y-80066666D01*
X81816666Y-79633333D01*
X81116666Y-79033333D02*
X81116666Y-79166666D01*
X81150000Y-79233333D01*
X81183333Y-79266666D01*
X81283333Y-79333333D01*
X81416666Y-79366666D01*
X81683333Y-79366666D01*
X81750000Y-79333333D01*
X81783333Y-79300000D01*
X81816666Y-79233333D01*
X81816666Y-79100000D01*
X81783333Y-79033333D01*
X81750000Y-79000000D01*
X81683333Y-78966666D01*
X81516666Y-78966666D01*
X81450000Y-79000000D01*
X81416666Y-79033333D01*
X81383333Y-79100000D01*
X81383333Y-79233333D01*
X81416666Y-79300000D01*
X81450000Y-79333333D01*
X81516666Y-79366666D01*
%TO.C,C7*%
X114470000Y-79391666D02*
X114503333Y-79425000D01*
X114536666Y-79525000D01*
X114536666Y-79591666D01*
X114503333Y-79691666D01*
X114436666Y-79758333D01*
X114370000Y-79791666D01*
X114236666Y-79825000D01*
X114136666Y-79825000D01*
X114003333Y-79791666D01*
X113936666Y-79758333D01*
X113870000Y-79691666D01*
X113836666Y-79591666D01*
X113836666Y-79525000D01*
X113870000Y-79425000D01*
X113903333Y-79391666D01*
X113836666Y-79158333D02*
X113836666Y-78691666D01*
X114536666Y-78991666D01*
%TO.C,C21*%
X84900000Y-100075000D02*
X84933333Y-100041666D01*
X85033333Y-100008333D01*
X85100000Y-100008333D01*
X85200000Y-100041666D01*
X85266666Y-100108333D01*
X85300000Y-100175000D01*
X85333333Y-100308333D01*
X85333333Y-100408333D01*
X85300000Y-100541666D01*
X85266666Y-100608333D01*
X85200000Y-100675000D01*
X85100000Y-100708333D01*
X85033333Y-100708333D01*
X84933333Y-100675000D01*
X84900000Y-100641666D01*
X84633333Y-100641666D02*
X84600000Y-100675000D01*
X84533333Y-100708333D01*
X84366666Y-100708333D01*
X84300000Y-100675000D01*
X84266666Y-100641666D01*
X84233333Y-100575000D01*
X84233333Y-100508333D01*
X84266666Y-100408333D01*
X84666666Y-100008333D01*
X84233333Y-100008333D01*
X83566666Y-100008333D02*
X83966666Y-100008333D01*
X83766666Y-100008333D02*
X83766666Y-100708333D01*
X83833333Y-100608333D01*
X83900000Y-100541666D01*
X83966666Y-100508333D01*
%TO.C,U6*%
X87316666Y-79983333D02*
X87883333Y-79983333D01*
X87950000Y-79950000D01*
X87983333Y-79916666D01*
X88016666Y-79850000D01*
X88016666Y-79716666D01*
X87983333Y-79650000D01*
X87950000Y-79616666D01*
X87883333Y-79583333D01*
X87316666Y-79583333D01*
X87316666Y-78950000D02*
X87316666Y-79083333D01*
X87350000Y-79150000D01*
X87383333Y-79183333D01*
X87483333Y-79250000D01*
X87616666Y-79283333D01*
X87883333Y-79283333D01*
X87950000Y-79250000D01*
X87983333Y-79216666D01*
X88016666Y-79150000D01*
X88016666Y-79016666D01*
X87983333Y-78950000D01*
X87950000Y-78916666D01*
X87883333Y-78883333D01*
X87716666Y-78883333D01*
X87650000Y-78916666D01*
X87616666Y-78950000D01*
X87583333Y-79016666D01*
X87583333Y-79150000D01*
X87616666Y-79216666D01*
X87650000Y-79250000D01*
X87716666Y-79283333D01*
%TO.C,R32*%
X118325000Y-87038333D02*
X118558333Y-87371666D01*
X118725000Y-87038333D02*
X118725000Y-87738333D01*
X118458333Y-87738333D01*
X118391666Y-87705000D01*
X118358333Y-87671666D01*
X118325000Y-87605000D01*
X118325000Y-87505000D01*
X118358333Y-87438333D01*
X118391666Y-87405000D01*
X118458333Y-87371666D01*
X118725000Y-87371666D01*
X118091666Y-87738333D02*
X117658333Y-87738333D01*
X117891666Y-87471666D01*
X117791666Y-87471666D01*
X117725000Y-87438333D01*
X117691666Y-87405000D01*
X117658333Y-87338333D01*
X117658333Y-87171666D01*
X117691666Y-87105000D01*
X117725000Y-87071666D01*
X117791666Y-87038333D01*
X117991666Y-87038333D01*
X118058333Y-87071666D01*
X118091666Y-87105000D01*
X117391666Y-87671666D02*
X117358333Y-87705000D01*
X117291666Y-87738333D01*
X117125000Y-87738333D01*
X117058333Y-87705000D01*
X117025000Y-87671666D01*
X116991666Y-87605000D01*
X116991666Y-87538333D01*
X117025000Y-87438333D01*
X117425000Y-87038333D01*
X116991666Y-87038333D01*
%TO.C,R35*%
X115375000Y-85613333D02*
X115608333Y-85946666D01*
X115775000Y-85613333D02*
X115775000Y-86313333D01*
X115508333Y-86313333D01*
X115441666Y-86280000D01*
X115408333Y-86246666D01*
X115375000Y-86180000D01*
X115375000Y-86080000D01*
X115408333Y-86013333D01*
X115441666Y-85980000D01*
X115508333Y-85946666D01*
X115775000Y-85946666D01*
X115141666Y-86313333D02*
X114708333Y-86313333D01*
X114941666Y-86046666D01*
X114841666Y-86046666D01*
X114775000Y-86013333D01*
X114741666Y-85980000D01*
X114708333Y-85913333D01*
X114708333Y-85746666D01*
X114741666Y-85680000D01*
X114775000Y-85646666D01*
X114841666Y-85613333D01*
X115041666Y-85613333D01*
X115108333Y-85646666D01*
X115141666Y-85680000D01*
X114075000Y-86313333D02*
X114408333Y-86313333D01*
X114441666Y-85980000D01*
X114408333Y-86013333D01*
X114341666Y-86046666D01*
X114175000Y-86046666D01*
X114108333Y-86013333D01*
X114075000Y-85980000D01*
X114041666Y-85913333D01*
X114041666Y-85746666D01*
X114075000Y-85680000D01*
X114108333Y-85646666D01*
X114175000Y-85613333D01*
X114341666Y-85613333D01*
X114408333Y-85646666D01*
X114441666Y-85680000D01*
%TO.C,C29*%
X82075000Y-75325000D02*
X82041666Y-75358333D01*
X81941666Y-75391666D01*
X81875000Y-75391666D01*
X81775000Y-75358333D01*
X81708333Y-75291666D01*
X81675000Y-75225000D01*
X81641666Y-75091666D01*
X81641666Y-74991666D01*
X81675000Y-74858333D01*
X81708333Y-74791666D01*
X81775000Y-74725000D01*
X81875000Y-74691666D01*
X81941666Y-74691666D01*
X82041666Y-74725000D01*
X82075000Y-74758333D01*
X82341666Y-74758333D02*
X82375000Y-74725000D01*
X82441666Y-74691666D01*
X82608333Y-74691666D01*
X82675000Y-74725000D01*
X82708333Y-74758333D01*
X82741666Y-74825000D01*
X82741666Y-74891666D01*
X82708333Y-74991666D01*
X82308333Y-75391666D01*
X82741666Y-75391666D01*
X83075000Y-75391666D02*
X83208333Y-75391666D01*
X83275000Y-75358333D01*
X83308333Y-75325000D01*
X83375000Y-75225000D01*
X83408333Y-75091666D01*
X83408333Y-74825000D01*
X83375000Y-74758333D01*
X83341666Y-74725000D01*
X83275000Y-74691666D01*
X83141666Y-74691666D01*
X83075000Y-74725000D01*
X83041666Y-74758333D01*
X83008333Y-74825000D01*
X83008333Y-74991666D01*
X83041666Y-75058333D01*
X83075000Y-75091666D01*
X83141666Y-75125000D01*
X83275000Y-75125000D01*
X83341666Y-75091666D01*
X83375000Y-75058333D01*
X83408333Y-74991666D01*
%TO.C,R29*%
X135895000Y-97326666D02*
X135661666Y-96993333D01*
X135495000Y-97326666D02*
X135495000Y-96626666D01*
X135761666Y-96626666D01*
X135828333Y-96660000D01*
X135861666Y-96693333D01*
X135895000Y-96760000D01*
X135895000Y-96860000D01*
X135861666Y-96926666D01*
X135828333Y-96960000D01*
X135761666Y-96993333D01*
X135495000Y-96993333D01*
X136161666Y-96693333D02*
X136195000Y-96660000D01*
X136261666Y-96626666D01*
X136428333Y-96626666D01*
X136495000Y-96660000D01*
X136528333Y-96693333D01*
X136561666Y-96760000D01*
X136561666Y-96826666D01*
X136528333Y-96926666D01*
X136128333Y-97326666D01*
X136561666Y-97326666D01*
X136895000Y-97326666D02*
X137028333Y-97326666D01*
X137095000Y-97293333D01*
X137128333Y-97260000D01*
X137195000Y-97160000D01*
X137228333Y-97026666D01*
X137228333Y-96760000D01*
X137195000Y-96693333D01*
X137161666Y-96660000D01*
X137095000Y-96626666D01*
X136961666Y-96626666D01*
X136895000Y-96660000D01*
X136861666Y-96693333D01*
X136828333Y-96760000D01*
X136828333Y-96926666D01*
X136861666Y-96993333D01*
X136895000Y-97026666D01*
X136961666Y-97060000D01*
X137095000Y-97060000D01*
X137161666Y-97026666D01*
X137195000Y-96993333D01*
X137228333Y-96926666D01*
%TO.C,C22*%
X85200000Y-95650000D02*
X85233333Y-95683333D01*
X85266666Y-95783333D01*
X85266666Y-95850000D01*
X85233333Y-95950000D01*
X85166666Y-96016666D01*
X85100000Y-96050000D01*
X84966666Y-96083333D01*
X84866666Y-96083333D01*
X84733333Y-96050000D01*
X84666666Y-96016666D01*
X84600000Y-95950000D01*
X84566666Y-95850000D01*
X84566666Y-95783333D01*
X84600000Y-95683333D01*
X84633333Y-95650000D01*
X84633333Y-95383333D02*
X84600000Y-95350000D01*
X84566666Y-95283333D01*
X84566666Y-95116666D01*
X84600000Y-95050000D01*
X84633333Y-95016666D01*
X84700000Y-94983333D01*
X84766666Y-94983333D01*
X84866666Y-95016666D01*
X85266666Y-95416666D01*
X85266666Y-94983333D01*
X84633333Y-94716666D02*
X84600000Y-94683333D01*
X84566666Y-94616666D01*
X84566666Y-94450000D01*
X84600000Y-94383333D01*
X84633333Y-94350000D01*
X84700000Y-94316666D01*
X84766666Y-94316666D01*
X84866666Y-94350000D01*
X85266666Y-94750000D01*
X85266666Y-94316666D01*
%TO.C,C25*%
X84950000Y-84525000D02*
X84916666Y-84558333D01*
X84816666Y-84591666D01*
X84750000Y-84591666D01*
X84650000Y-84558333D01*
X84583333Y-84491666D01*
X84550000Y-84425000D01*
X84516666Y-84291666D01*
X84516666Y-84191666D01*
X84550000Y-84058333D01*
X84583333Y-83991666D01*
X84650000Y-83925000D01*
X84750000Y-83891666D01*
X84816666Y-83891666D01*
X84916666Y-83925000D01*
X84950000Y-83958333D01*
X85216666Y-83958333D02*
X85250000Y-83925000D01*
X85316666Y-83891666D01*
X85483333Y-83891666D01*
X85550000Y-83925000D01*
X85583333Y-83958333D01*
X85616666Y-84025000D01*
X85616666Y-84091666D01*
X85583333Y-84191666D01*
X85183333Y-84591666D01*
X85616666Y-84591666D01*
X86250000Y-83891666D02*
X85916666Y-83891666D01*
X85883333Y-84225000D01*
X85916666Y-84191666D01*
X85983333Y-84158333D01*
X86150000Y-84158333D01*
X86216666Y-84191666D01*
X86250000Y-84225000D01*
X86283333Y-84291666D01*
X86283333Y-84458333D01*
X86250000Y-84525000D01*
X86216666Y-84558333D01*
X86150000Y-84591666D01*
X85983333Y-84591666D01*
X85916666Y-84558333D01*
X85883333Y-84525000D01*
%TO.C,R11*%
X85400000Y-102566666D02*
X85166666Y-102233333D01*
X85000000Y-102566666D02*
X85000000Y-101866666D01*
X85266666Y-101866666D01*
X85333333Y-101900000D01*
X85366666Y-101933333D01*
X85400000Y-102000000D01*
X85400000Y-102100000D01*
X85366666Y-102166666D01*
X85333333Y-102200000D01*
X85266666Y-102233333D01*
X85000000Y-102233333D01*
X86066666Y-102566666D02*
X85666666Y-102566666D01*
X85866666Y-102566666D02*
X85866666Y-101866666D01*
X85800000Y-101966666D01*
X85733333Y-102033333D01*
X85666666Y-102066666D01*
X86733333Y-102566666D02*
X86333333Y-102566666D01*
X86533333Y-102566666D02*
X86533333Y-101866666D01*
X86466666Y-101966666D01*
X86400000Y-102033333D01*
X86333333Y-102066666D01*
%TO.C,C20*%
X85175000Y-101600000D02*
X85141666Y-101633333D01*
X85041666Y-101666666D01*
X84975000Y-101666666D01*
X84875000Y-101633333D01*
X84808333Y-101566666D01*
X84775000Y-101500000D01*
X84741666Y-101366666D01*
X84741666Y-101266666D01*
X84775000Y-101133333D01*
X84808333Y-101066666D01*
X84875000Y-101000000D01*
X84975000Y-100966666D01*
X85041666Y-100966666D01*
X85141666Y-101000000D01*
X85175000Y-101033333D01*
X85441666Y-101033333D02*
X85475000Y-101000000D01*
X85541666Y-100966666D01*
X85708333Y-100966666D01*
X85775000Y-101000000D01*
X85808333Y-101033333D01*
X85841666Y-101100000D01*
X85841666Y-101166666D01*
X85808333Y-101266666D01*
X85408333Y-101666666D01*
X85841666Y-101666666D01*
X86275000Y-100966666D02*
X86341666Y-100966666D01*
X86408333Y-101000000D01*
X86441666Y-101033333D01*
X86475000Y-101100000D01*
X86508333Y-101233333D01*
X86508333Y-101400000D01*
X86475000Y-101533333D01*
X86441666Y-101600000D01*
X86408333Y-101633333D01*
X86341666Y-101666666D01*
X86275000Y-101666666D01*
X86208333Y-101633333D01*
X86175000Y-101600000D01*
X86141666Y-101533333D01*
X86108333Y-101400000D01*
X86108333Y-101233333D01*
X86141666Y-101100000D01*
X86175000Y-101033333D01*
X86208333Y-101000000D01*
X86275000Y-100966666D01*
%TO.C,C2*%
X135953333Y-88435000D02*
X135920000Y-88468333D01*
X135820000Y-88501666D01*
X135753333Y-88501666D01*
X135653333Y-88468333D01*
X135586666Y-88401666D01*
X135553333Y-88335000D01*
X135520000Y-88201666D01*
X135520000Y-88101666D01*
X135553333Y-87968333D01*
X135586666Y-87901666D01*
X135653333Y-87835000D01*
X135753333Y-87801666D01*
X135820000Y-87801666D01*
X135920000Y-87835000D01*
X135953333Y-87868333D01*
X136220000Y-87868333D02*
X136253333Y-87835000D01*
X136320000Y-87801666D01*
X136486666Y-87801666D01*
X136553333Y-87835000D01*
X136586666Y-87868333D01*
X136620000Y-87935000D01*
X136620000Y-88001666D01*
X136586666Y-88101666D01*
X136186666Y-88501666D01*
X136620000Y-88501666D01*
%TO.C,R31*%
X135920000Y-94401666D02*
X135686666Y-94068333D01*
X135520000Y-94401666D02*
X135520000Y-93701666D01*
X135786666Y-93701666D01*
X135853333Y-93735000D01*
X135886666Y-93768333D01*
X135920000Y-93835000D01*
X135920000Y-93935000D01*
X135886666Y-94001666D01*
X135853333Y-94035000D01*
X135786666Y-94068333D01*
X135520000Y-94068333D01*
X136153333Y-93701666D02*
X136586666Y-93701666D01*
X136353333Y-93968333D01*
X136453333Y-93968333D01*
X136520000Y-94001666D01*
X136553333Y-94035000D01*
X136586666Y-94101666D01*
X136586666Y-94268333D01*
X136553333Y-94335000D01*
X136520000Y-94368333D01*
X136453333Y-94401666D01*
X136253333Y-94401666D01*
X136186666Y-94368333D01*
X136153333Y-94335000D01*
X137253333Y-94401666D02*
X136853333Y-94401666D01*
X137053333Y-94401666D02*
X137053333Y-93701666D01*
X136986666Y-93801666D01*
X136920000Y-93868333D01*
X136853333Y-93901666D01*
%TO.C,R43*%
X133121666Y-102600000D02*
X132788333Y-102833333D01*
X133121666Y-103000000D02*
X132421666Y-103000000D01*
X132421666Y-102733333D01*
X132455000Y-102666666D01*
X132488333Y-102633333D01*
X132555000Y-102600000D01*
X132655000Y-102600000D01*
X132721666Y-102633333D01*
X132755000Y-102666666D01*
X132788333Y-102733333D01*
X132788333Y-103000000D01*
X132655000Y-102000000D02*
X133121666Y-102000000D01*
X132388333Y-102166666D02*
X132888333Y-102333333D01*
X132888333Y-101900000D01*
X132421666Y-101700000D02*
X132421666Y-101266666D01*
X132688333Y-101500000D01*
X132688333Y-101400000D01*
X132721666Y-101333333D01*
X132755000Y-101300000D01*
X132821666Y-101266666D01*
X132988333Y-101266666D01*
X133055000Y-101300000D01*
X133088333Y-101333333D01*
X133121666Y-101400000D01*
X133121666Y-101600000D01*
X133088333Y-101666666D01*
X133055000Y-101700000D01*
%TO.C,R38*%
X126916666Y-79062500D02*
X126583333Y-79295833D01*
X126916666Y-79462500D02*
X126216666Y-79462500D01*
X126216666Y-79195833D01*
X126250000Y-79129166D01*
X126283333Y-79095833D01*
X126350000Y-79062500D01*
X126450000Y-79062500D01*
X126516666Y-79095833D01*
X126550000Y-79129166D01*
X126583333Y-79195833D01*
X126583333Y-79462500D01*
X126216666Y-78829166D02*
X126216666Y-78395833D01*
X126483333Y-78629166D01*
X126483333Y-78529166D01*
X126516666Y-78462500D01*
X126550000Y-78429166D01*
X126616666Y-78395833D01*
X126783333Y-78395833D01*
X126850000Y-78429166D01*
X126883333Y-78462500D01*
X126916666Y-78529166D01*
X126916666Y-78729166D01*
X126883333Y-78795833D01*
X126850000Y-78829166D01*
X126516666Y-77995833D02*
X126483333Y-78062500D01*
X126450000Y-78095833D01*
X126383333Y-78129166D01*
X126350000Y-78129166D01*
X126283333Y-78095833D01*
X126250000Y-78062500D01*
X126216666Y-77995833D01*
X126216666Y-77862500D01*
X126250000Y-77795833D01*
X126283333Y-77762500D01*
X126350000Y-77729166D01*
X126383333Y-77729166D01*
X126450000Y-77762500D01*
X126483333Y-77795833D01*
X126516666Y-77862500D01*
X126516666Y-77995833D01*
X126550000Y-78062500D01*
X126583333Y-78095833D01*
X126650000Y-78129166D01*
X126783333Y-78129166D01*
X126850000Y-78095833D01*
X126883333Y-78062500D01*
X126916666Y-77995833D01*
X126916666Y-77862500D01*
X126883333Y-77795833D01*
X126850000Y-77762500D01*
X126783333Y-77729166D01*
X126650000Y-77729166D01*
X126583333Y-77762500D01*
X126550000Y-77795833D01*
X126516666Y-77862500D01*
%TO.C,R3*%
X107333333Y-101876666D02*
X107100000Y-101543333D01*
X106933333Y-101876666D02*
X106933333Y-101176666D01*
X107200000Y-101176666D01*
X107266666Y-101210000D01*
X107300000Y-101243333D01*
X107333333Y-101310000D01*
X107333333Y-101410000D01*
X107300000Y-101476666D01*
X107266666Y-101510000D01*
X107200000Y-101543333D01*
X106933333Y-101543333D01*
X107566666Y-101176666D02*
X108000000Y-101176666D01*
X107766666Y-101443333D01*
X107866666Y-101443333D01*
X107933333Y-101476666D01*
X107966666Y-101510000D01*
X108000000Y-101576666D01*
X108000000Y-101743333D01*
X107966666Y-101810000D01*
X107933333Y-101843333D01*
X107866666Y-101876666D01*
X107666666Y-101876666D01*
X107600000Y-101843333D01*
X107566666Y-101810000D01*
%TO.C,C27*%
X84750000Y-75145000D02*
X84716666Y-75178333D01*
X84616666Y-75211666D01*
X84550000Y-75211666D01*
X84450000Y-75178333D01*
X84383333Y-75111666D01*
X84350000Y-75045000D01*
X84316666Y-74911666D01*
X84316666Y-74811666D01*
X84350000Y-74678333D01*
X84383333Y-74611666D01*
X84450000Y-74545000D01*
X84550000Y-74511666D01*
X84616666Y-74511666D01*
X84716666Y-74545000D01*
X84750000Y-74578333D01*
X85016666Y-74578333D02*
X85050000Y-74545000D01*
X85116666Y-74511666D01*
X85283333Y-74511666D01*
X85350000Y-74545000D01*
X85383333Y-74578333D01*
X85416666Y-74645000D01*
X85416666Y-74711666D01*
X85383333Y-74811666D01*
X84983333Y-75211666D01*
X85416666Y-75211666D01*
X85650000Y-74511666D02*
X86116666Y-74511666D01*
X85816666Y-75211666D01*
%TO.C,J3*%
X139761666Y-77361666D02*
X139761666Y-77861666D01*
X139728333Y-77961666D01*
X139661666Y-78028333D01*
X139561666Y-78061666D01*
X139495000Y-78061666D01*
X140028333Y-77361666D02*
X140461666Y-77361666D01*
X140228333Y-77628333D01*
X140328333Y-77628333D01*
X140395000Y-77661666D01*
X140428333Y-77695000D01*
X140461666Y-77761666D01*
X140461666Y-77928333D01*
X140428333Y-77995000D01*
X140395000Y-78028333D01*
X140328333Y-78061666D01*
X140128333Y-78061666D01*
X140061666Y-78028333D01*
X140028333Y-77995000D01*
%TO.C,R28*%
X136045000Y-98751666D02*
X135811666Y-98418333D01*
X135645000Y-98751666D02*
X135645000Y-98051666D01*
X135911666Y-98051666D01*
X135978333Y-98085000D01*
X136011666Y-98118333D01*
X136045000Y-98185000D01*
X136045000Y-98285000D01*
X136011666Y-98351666D01*
X135978333Y-98385000D01*
X135911666Y-98418333D01*
X135645000Y-98418333D01*
X136311666Y-98118333D02*
X136345000Y-98085000D01*
X136411666Y-98051666D01*
X136578333Y-98051666D01*
X136645000Y-98085000D01*
X136678333Y-98118333D01*
X136711666Y-98185000D01*
X136711666Y-98251666D01*
X136678333Y-98351666D01*
X136278333Y-98751666D01*
X136711666Y-98751666D01*
X137111666Y-98351666D02*
X137045000Y-98318333D01*
X137011666Y-98285000D01*
X136978333Y-98218333D01*
X136978333Y-98185000D01*
X137011666Y-98118333D01*
X137045000Y-98085000D01*
X137111666Y-98051666D01*
X137245000Y-98051666D01*
X137311666Y-98085000D01*
X137345000Y-98118333D01*
X137378333Y-98185000D01*
X137378333Y-98218333D01*
X137345000Y-98285000D01*
X137311666Y-98318333D01*
X137245000Y-98351666D01*
X137111666Y-98351666D01*
X137045000Y-98385000D01*
X137011666Y-98418333D01*
X136978333Y-98485000D01*
X136978333Y-98618333D01*
X137011666Y-98685000D01*
X137045000Y-98718333D01*
X137111666Y-98751666D01*
X137245000Y-98751666D01*
X137311666Y-98718333D01*
X137345000Y-98685000D01*
X137378333Y-98618333D01*
X137378333Y-98485000D01*
X137345000Y-98418333D01*
X137311666Y-98385000D01*
X137245000Y-98351666D01*
%TO.C,R5*%
X110353333Y-104011666D02*
X110120000Y-103678333D01*
X109953333Y-104011666D02*
X109953333Y-103311666D01*
X110220000Y-103311666D01*
X110286666Y-103345000D01*
X110320000Y-103378333D01*
X110353333Y-103445000D01*
X110353333Y-103545000D01*
X110320000Y-103611666D01*
X110286666Y-103645000D01*
X110220000Y-103678333D01*
X109953333Y-103678333D01*
X110986666Y-103311666D02*
X110653333Y-103311666D01*
X110620000Y-103645000D01*
X110653333Y-103611666D01*
X110720000Y-103578333D01*
X110886666Y-103578333D01*
X110953333Y-103611666D01*
X110986666Y-103645000D01*
X111020000Y-103711666D01*
X111020000Y-103878333D01*
X110986666Y-103945000D01*
X110953333Y-103978333D01*
X110886666Y-104011666D01*
X110720000Y-104011666D01*
X110653333Y-103978333D01*
X110620000Y-103945000D01*
%TO.C,D2*%
X75733333Y-72091666D02*
X75733333Y-71391666D01*
X75900000Y-71391666D01*
X76000000Y-71425000D01*
X76066666Y-71491666D01*
X76100000Y-71558333D01*
X76133333Y-71691666D01*
X76133333Y-71791666D01*
X76100000Y-71925000D01*
X76066666Y-71991666D01*
X76000000Y-72058333D01*
X75900000Y-72091666D01*
X75733333Y-72091666D01*
X76400000Y-71458333D02*
X76433333Y-71425000D01*
X76500000Y-71391666D01*
X76666666Y-71391666D01*
X76733333Y-71425000D01*
X76766666Y-71458333D01*
X76800000Y-71525000D01*
X76800000Y-71591666D01*
X76766666Y-71691666D01*
X76366666Y-72091666D01*
X76800000Y-72091666D01*
%TO.C,U9*%
X127586666Y-87801666D02*
X127586666Y-88368333D01*
X127620000Y-88435000D01*
X127653333Y-88468333D01*
X127720000Y-88501666D01*
X127853333Y-88501666D01*
X127920000Y-88468333D01*
X127953333Y-88435000D01*
X127986666Y-88368333D01*
X127986666Y-87801666D01*
X128353333Y-88501666D02*
X128486666Y-88501666D01*
X128553333Y-88468333D01*
X128586666Y-88435000D01*
X128653333Y-88335000D01*
X128686666Y-88201666D01*
X128686666Y-87935000D01*
X128653333Y-87868333D01*
X128620000Y-87835000D01*
X128553333Y-87801666D01*
X128420000Y-87801666D01*
X128353333Y-87835000D01*
X128320000Y-87868333D01*
X128286666Y-87935000D01*
X128286666Y-88101666D01*
X128320000Y-88168333D01*
X128353333Y-88201666D01*
X128420000Y-88235000D01*
X128553333Y-88235000D01*
X128620000Y-88201666D01*
X128653333Y-88168333D01*
X128686666Y-88101666D01*
%TO.C,C32*%
X73825000Y-89000000D02*
X73791666Y-89033333D01*
X73691666Y-89066666D01*
X73625000Y-89066666D01*
X73525000Y-89033333D01*
X73458333Y-88966666D01*
X73425000Y-88900000D01*
X73391666Y-88766666D01*
X73391666Y-88666666D01*
X73425000Y-88533333D01*
X73458333Y-88466666D01*
X73525000Y-88400000D01*
X73625000Y-88366666D01*
X73691666Y-88366666D01*
X73791666Y-88400000D01*
X73825000Y-88433333D01*
X74058333Y-88366666D02*
X74491666Y-88366666D01*
X74258333Y-88633333D01*
X74358333Y-88633333D01*
X74425000Y-88666666D01*
X74458333Y-88700000D01*
X74491666Y-88766666D01*
X74491666Y-88933333D01*
X74458333Y-89000000D01*
X74425000Y-89033333D01*
X74358333Y-89066666D01*
X74158333Y-89066666D01*
X74091666Y-89033333D01*
X74058333Y-89000000D01*
X74758333Y-88433333D02*
X74791666Y-88400000D01*
X74858333Y-88366666D01*
X75025000Y-88366666D01*
X75091666Y-88400000D01*
X75125000Y-88433333D01*
X75158333Y-88500000D01*
X75158333Y-88566666D01*
X75125000Y-88666666D01*
X74725000Y-89066666D01*
X75158333Y-89066666D01*
%TO.C,R7*%
X101258333Y-83866666D02*
X101025000Y-83533333D01*
X100858333Y-83866666D02*
X100858333Y-83166666D01*
X101125000Y-83166666D01*
X101191666Y-83200000D01*
X101225000Y-83233333D01*
X101258333Y-83300000D01*
X101258333Y-83400000D01*
X101225000Y-83466666D01*
X101191666Y-83500000D01*
X101125000Y-83533333D01*
X100858333Y-83533333D01*
X101491666Y-83166666D02*
X101958333Y-83166666D01*
X101658333Y-83866666D01*
%TO.C,U2*%
X114316666Y-99066666D02*
X114316666Y-99633333D01*
X114350000Y-99700000D01*
X114383333Y-99733333D01*
X114450000Y-99766666D01*
X114583333Y-99766666D01*
X114650000Y-99733333D01*
X114683333Y-99700000D01*
X114716666Y-99633333D01*
X114716666Y-99066666D01*
X115016666Y-99133333D02*
X115050000Y-99100000D01*
X115116666Y-99066666D01*
X115283333Y-99066666D01*
X115350000Y-99100000D01*
X115383333Y-99133333D01*
X115416666Y-99200000D01*
X115416666Y-99266666D01*
X115383333Y-99366666D01*
X114983333Y-99766666D01*
X115416666Y-99766666D01*
%TO.C,C24*%
X83925000Y-96625000D02*
X83891666Y-96658333D01*
X83791666Y-96691666D01*
X83725000Y-96691666D01*
X83625000Y-96658333D01*
X83558333Y-96591666D01*
X83525000Y-96525000D01*
X83491666Y-96391666D01*
X83491666Y-96291666D01*
X83525000Y-96158333D01*
X83558333Y-96091666D01*
X83625000Y-96025000D01*
X83725000Y-95991666D01*
X83791666Y-95991666D01*
X83891666Y-96025000D01*
X83925000Y-96058333D01*
X84191666Y-96058333D02*
X84225000Y-96025000D01*
X84291666Y-95991666D01*
X84458333Y-95991666D01*
X84525000Y-96025000D01*
X84558333Y-96058333D01*
X84591666Y-96125000D01*
X84591666Y-96191666D01*
X84558333Y-96291666D01*
X84158333Y-96691666D01*
X84591666Y-96691666D01*
X85191666Y-96225000D02*
X85191666Y-96691666D01*
X85025000Y-95958333D02*
X84858333Y-96458333D01*
X85291666Y-96458333D01*
%TO.C,R17*%
X103750000Y-97941666D02*
X103516666Y-97608333D01*
X103350000Y-97941666D02*
X103350000Y-97241666D01*
X103616666Y-97241666D01*
X103683333Y-97275000D01*
X103716666Y-97308333D01*
X103750000Y-97375000D01*
X103750000Y-97475000D01*
X103716666Y-97541666D01*
X103683333Y-97575000D01*
X103616666Y-97608333D01*
X103350000Y-97608333D01*
X104416666Y-97941666D02*
X104016666Y-97941666D01*
X104216666Y-97941666D02*
X104216666Y-97241666D01*
X104150000Y-97341666D01*
X104083333Y-97408333D01*
X104016666Y-97441666D01*
X104650000Y-97241666D02*
X105116666Y-97241666D01*
X104816666Y-97941666D01*
%TO.C,R45*%
X93875000Y-83416666D02*
X93641666Y-83083333D01*
X93475000Y-83416666D02*
X93475000Y-82716666D01*
X93741666Y-82716666D01*
X93808333Y-82750000D01*
X93841666Y-82783333D01*
X93875000Y-82850000D01*
X93875000Y-82950000D01*
X93841666Y-83016666D01*
X93808333Y-83050000D01*
X93741666Y-83083333D01*
X93475000Y-83083333D01*
X94475000Y-82950000D02*
X94475000Y-83416666D01*
X94308333Y-82683333D02*
X94141666Y-83183333D01*
X94575000Y-83183333D01*
X95175000Y-82716666D02*
X94841666Y-82716666D01*
X94808333Y-83050000D01*
X94841666Y-83016666D01*
X94908333Y-82983333D01*
X95075000Y-82983333D01*
X95141666Y-83016666D01*
X95175000Y-83050000D01*
X95208333Y-83116666D01*
X95208333Y-83283333D01*
X95175000Y-83350000D01*
X95141666Y-83383333D01*
X95075000Y-83416666D01*
X94908333Y-83416666D01*
X94841666Y-83383333D01*
X94808333Y-83350000D01*
%TO.C,R41*%
X127946666Y-102600000D02*
X127613333Y-102833333D01*
X127946666Y-103000000D02*
X127246666Y-103000000D01*
X127246666Y-102733333D01*
X127280000Y-102666666D01*
X127313333Y-102633333D01*
X127380000Y-102600000D01*
X127480000Y-102600000D01*
X127546666Y-102633333D01*
X127580000Y-102666666D01*
X127613333Y-102733333D01*
X127613333Y-103000000D01*
X127480000Y-102000000D02*
X127946666Y-102000000D01*
X127213333Y-102166666D02*
X127713333Y-102333333D01*
X127713333Y-101900000D01*
X127946666Y-101266666D02*
X127946666Y-101666666D01*
X127946666Y-101466666D02*
X127246666Y-101466666D01*
X127346666Y-101533333D01*
X127413333Y-101600000D01*
X127446666Y-101666666D01*
%TO.C,R14*%
X103725000Y-102366666D02*
X103491666Y-102033333D01*
X103325000Y-102366666D02*
X103325000Y-101666666D01*
X103591666Y-101666666D01*
X103658333Y-101700000D01*
X103691666Y-101733333D01*
X103725000Y-101800000D01*
X103725000Y-101900000D01*
X103691666Y-101966666D01*
X103658333Y-102000000D01*
X103591666Y-102033333D01*
X103325000Y-102033333D01*
X104391666Y-102366666D02*
X103991666Y-102366666D01*
X104191666Y-102366666D02*
X104191666Y-101666666D01*
X104125000Y-101766666D01*
X104058333Y-101833333D01*
X103991666Y-101866666D01*
X104991666Y-101900000D02*
X104991666Y-102366666D01*
X104825000Y-101633333D02*
X104658333Y-102133333D01*
X105091666Y-102133333D01*
%TO.C,FB1*%
X76866666Y-84025000D02*
X76633333Y-84025000D01*
X76633333Y-84391666D02*
X76633333Y-83691666D01*
X76966666Y-83691666D01*
X77466666Y-84025000D02*
X77566666Y-84058333D01*
X77600000Y-84091666D01*
X77633333Y-84158333D01*
X77633333Y-84258333D01*
X77600000Y-84325000D01*
X77566666Y-84358333D01*
X77500000Y-84391666D01*
X77233333Y-84391666D01*
X77233333Y-83691666D01*
X77466666Y-83691666D01*
X77533333Y-83725000D01*
X77566666Y-83758333D01*
X77600000Y-83825000D01*
X77600000Y-83891666D01*
X77566666Y-83958333D01*
X77533333Y-83991666D01*
X77466666Y-84025000D01*
X77233333Y-84025000D01*
X78300000Y-84391666D02*
X77900000Y-84391666D01*
X78100000Y-84391666D02*
X78100000Y-83691666D01*
X78033333Y-83791666D01*
X77966666Y-83858333D01*
X77900000Y-83891666D01*
%TO.C,R1*%
X110983333Y-84836666D02*
X110750000Y-84503333D01*
X110583333Y-84836666D02*
X110583333Y-84136666D01*
X110850000Y-84136666D01*
X110916666Y-84170000D01*
X110950000Y-84203333D01*
X110983333Y-84270000D01*
X110983333Y-84370000D01*
X110950000Y-84436666D01*
X110916666Y-84470000D01*
X110850000Y-84503333D01*
X110583333Y-84503333D01*
X111650000Y-84836666D02*
X111250000Y-84836666D01*
X111450000Y-84836666D02*
X111450000Y-84136666D01*
X111383333Y-84236666D01*
X111316666Y-84303333D01*
X111250000Y-84336666D01*
%TO.C,R2*%
X122183333Y-103936666D02*
X121950000Y-103603333D01*
X121783333Y-103936666D02*
X121783333Y-103236666D01*
X122050000Y-103236666D01*
X122116666Y-103270000D01*
X122150000Y-103303333D01*
X122183333Y-103370000D01*
X122183333Y-103470000D01*
X122150000Y-103536666D01*
X122116666Y-103570000D01*
X122050000Y-103603333D01*
X121783333Y-103603333D01*
X122450000Y-103303333D02*
X122483333Y-103270000D01*
X122550000Y-103236666D01*
X122716666Y-103236666D01*
X122783333Y-103270000D01*
X122816666Y-103303333D01*
X122850000Y-103370000D01*
X122850000Y-103436666D01*
X122816666Y-103536666D01*
X122416666Y-103936666D01*
X122850000Y-103936666D01*
%TO.C,R42*%
X130521666Y-102600000D02*
X130188333Y-102833333D01*
X130521666Y-103000000D02*
X129821666Y-103000000D01*
X129821666Y-102733333D01*
X129855000Y-102666666D01*
X129888333Y-102633333D01*
X129955000Y-102600000D01*
X130055000Y-102600000D01*
X130121666Y-102633333D01*
X130155000Y-102666666D01*
X130188333Y-102733333D01*
X130188333Y-103000000D01*
X130055000Y-102000000D02*
X130521666Y-102000000D01*
X129788333Y-102166666D02*
X130288333Y-102333333D01*
X130288333Y-101900000D01*
X129888333Y-101666666D02*
X129855000Y-101633333D01*
X129821666Y-101566666D01*
X129821666Y-101400000D01*
X129855000Y-101333333D01*
X129888333Y-101300000D01*
X129955000Y-101266666D01*
X130021666Y-101266666D01*
X130121666Y-101300000D01*
X130521666Y-101700000D01*
X130521666Y-101266666D01*
%TO.C,R23*%
X92766666Y-106625000D02*
X92433333Y-106858333D01*
X92766666Y-107025000D02*
X92066666Y-107025000D01*
X92066666Y-106758333D01*
X92100000Y-106691666D01*
X92133333Y-106658333D01*
X92200000Y-106625000D01*
X92300000Y-106625000D01*
X92366666Y-106658333D01*
X92400000Y-106691666D01*
X92433333Y-106758333D01*
X92433333Y-107025000D01*
X92133333Y-106358333D02*
X92100000Y-106325000D01*
X92066666Y-106258333D01*
X92066666Y-106091666D01*
X92100000Y-106025000D01*
X92133333Y-105991666D01*
X92200000Y-105958333D01*
X92266666Y-105958333D01*
X92366666Y-105991666D01*
X92766666Y-106391666D01*
X92766666Y-105958333D01*
X92066666Y-105725000D02*
X92066666Y-105291666D01*
X92333333Y-105525000D01*
X92333333Y-105425000D01*
X92366666Y-105358333D01*
X92400000Y-105325000D01*
X92466666Y-105291666D01*
X92633333Y-105291666D01*
X92700000Y-105325000D01*
X92733333Y-105358333D01*
X92766666Y-105425000D01*
X92766666Y-105625000D01*
X92733333Y-105691666D01*
X92700000Y-105725000D01*
%TO.C,C4*%
X135978333Y-92710000D02*
X135945000Y-92743333D01*
X135845000Y-92776666D01*
X135778333Y-92776666D01*
X135678333Y-92743333D01*
X135611666Y-92676666D01*
X135578333Y-92610000D01*
X135545000Y-92476666D01*
X135545000Y-92376666D01*
X135578333Y-92243333D01*
X135611666Y-92176666D01*
X135678333Y-92110000D01*
X135778333Y-92076666D01*
X135845000Y-92076666D01*
X135945000Y-92110000D01*
X135978333Y-92143333D01*
X136578333Y-92310000D02*
X136578333Y-92776666D01*
X136411666Y-92043333D02*
X136245000Y-92543333D01*
X136678333Y-92543333D01*
%TO.C,C5*%
X135928333Y-91385000D02*
X135895000Y-91418333D01*
X135795000Y-91451666D01*
X135728333Y-91451666D01*
X135628333Y-91418333D01*
X135561666Y-91351666D01*
X135528333Y-91285000D01*
X135495000Y-91151666D01*
X135495000Y-91051666D01*
X135528333Y-90918333D01*
X135561666Y-90851666D01*
X135628333Y-90785000D01*
X135728333Y-90751666D01*
X135795000Y-90751666D01*
X135895000Y-90785000D01*
X135928333Y-90818333D01*
X136561666Y-90751666D02*
X136228333Y-90751666D01*
X136195000Y-91085000D01*
X136228333Y-91051666D01*
X136295000Y-91018333D01*
X136461666Y-91018333D01*
X136528333Y-91051666D01*
X136561666Y-91085000D01*
X136595000Y-91151666D01*
X136595000Y-91318333D01*
X136561666Y-91385000D01*
X136528333Y-91418333D01*
X136461666Y-91451666D01*
X136295000Y-91451666D01*
X136228333Y-91418333D01*
X136195000Y-91385000D01*
%TO.C,R36*%
X72375000Y-72091666D02*
X72141666Y-71758333D01*
X71975000Y-72091666D02*
X71975000Y-71391666D01*
X72241666Y-71391666D01*
X72308333Y-71425000D01*
X72341666Y-71458333D01*
X72375000Y-71525000D01*
X72375000Y-71625000D01*
X72341666Y-71691666D01*
X72308333Y-71725000D01*
X72241666Y-71758333D01*
X71975000Y-71758333D01*
X72608333Y-71391666D02*
X73041666Y-71391666D01*
X72808333Y-71658333D01*
X72908333Y-71658333D01*
X72975000Y-71691666D01*
X73008333Y-71725000D01*
X73041666Y-71791666D01*
X73041666Y-71958333D01*
X73008333Y-72025000D01*
X72975000Y-72058333D01*
X72908333Y-72091666D01*
X72708333Y-72091666D01*
X72641666Y-72058333D01*
X72608333Y-72025000D01*
X73641666Y-71391666D02*
X73508333Y-71391666D01*
X73441666Y-71425000D01*
X73408333Y-71458333D01*
X73341666Y-71558333D01*
X73308333Y-71691666D01*
X73308333Y-71958333D01*
X73341666Y-72025000D01*
X73375000Y-72058333D01*
X73441666Y-72091666D01*
X73575000Y-72091666D01*
X73641666Y-72058333D01*
X73675000Y-72025000D01*
X73708333Y-71958333D01*
X73708333Y-71791666D01*
X73675000Y-71725000D01*
X73641666Y-71691666D01*
X73575000Y-71658333D01*
X73441666Y-71658333D01*
X73375000Y-71691666D01*
X73341666Y-71725000D01*
X73308333Y-71791666D01*
%TO.C,J4*%
X91861666Y-73738333D02*
X92361666Y-73738333D01*
X92461666Y-73771666D01*
X92528333Y-73838333D01*
X92561666Y-73938333D01*
X92561666Y-74005000D01*
X92095000Y-73105000D02*
X92561666Y-73105000D01*
X91828333Y-73271666D02*
X92328333Y-73438333D01*
X92328333Y-73005000D01*
%TO.C,R26*%
X106736666Y-100385000D02*
X106403333Y-100618333D01*
X106736666Y-100785000D02*
X106036666Y-100785000D01*
X106036666Y-100518333D01*
X106070000Y-100451666D01*
X106103333Y-100418333D01*
X106170000Y-100385000D01*
X106270000Y-100385000D01*
X106336666Y-100418333D01*
X106370000Y-100451666D01*
X106403333Y-100518333D01*
X106403333Y-100785000D01*
X106103333Y-100118333D02*
X106070000Y-100085000D01*
X106036666Y-100018333D01*
X106036666Y-99851666D01*
X106070000Y-99785000D01*
X106103333Y-99751666D01*
X106170000Y-99718333D01*
X106236666Y-99718333D01*
X106336666Y-99751666D01*
X106736666Y-100151666D01*
X106736666Y-99718333D01*
X106036666Y-99118333D02*
X106036666Y-99251666D01*
X106070000Y-99318333D01*
X106103333Y-99351666D01*
X106203333Y-99418333D01*
X106336666Y-99451666D01*
X106603333Y-99451666D01*
X106670000Y-99418333D01*
X106703333Y-99385000D01*
X106736666Y-99318333D01*
X106736666Y-99185000D01*
X106703333Y-99118333D01*
X106670000Y-99085000D01*
X106603333Y-99051666D01*
X106436666Y-99051666D01*
X106370000Y-99085000D01*
X106336666Y-99118333D01*
X106303333Y-99185000D01*
X106303333Y-99318333D01*
X106336666Y-99385000D01*
X106370000Y-99418333D01*
X106436666Y-99451666D01*
%TO.C,R20*%
X88441666Y-106700000D02*
X88108333Y-106933333D01*
X88441666Y-107100000D02*
X87741666Y-107100000D01*
X87741666Y-106833333D01*
X87775000Y-106766666D01*
X87808333Y-106733333D01*
X87875000Y-106700000D01*
X87975000Y-106700000D01*
X88041666Y-106733333D01*
X88075000Y-106766666D01*
X88108333Y-106833333D01*
X88108333Y-107100000D01*
X87808333Y-106433333D02*
X87775000Y-106400000D01*
X87741666Y-106333333D01*
X87741666Y-106166666D01*
X87775000Y-106100000D01*
X87808333Y-106066666D01*
X87875000Y-106033333D01*
X87941666Y-106033333D01*
X88041666Y-106066666D01*
X88441666Y-106466666D01*
X88441666Y-106033333D01*
X87741666Y-105600000D02*
X87741666Y-105533333D01*
X87775000Y-105466666D01*
X87808333Y-105433333D01*
X87875000Y-105400000D01*
X88008333Y-105366666D01*
X88175000Y-105366666D01*
X88308333Y-105400000D01*
X88375000Y-105433333D01*
X88408333Y-105466666D01*
X88441666Y-105533333D01*
X88441666Y-105600000D01*
X88408333Y-105666666D01*
X88375000Y-105700000D01*
X88308333Y-105733333D01*
X88175000Y-105766666D01*
X88008333Y-105766666D01*
X87875000Y-105733333D01*
X87808333Y-105700000D01*
X87775000Y-105666666D01*
X87741666Y-105600000D01*
%TO.C,SW4*%
X104041666Y-80058333D02*
X104141666Y-80091666D01*
X104308333Y-80091666D01*
X104375000Y-80058333D01*
X104408333Y-80025000D01*
X104441666Y-79958333D01*
X104441666Y-79891666D01*
X104408333Y-79825000D01*
X104375000Y-79791666D01*
X104308333Y-79758333D01*
X104175000Y-79725000D01*
X104108333Y-79691666D01*
X104075000Y-79658333D01*
X104041666Y-79591666D01*
X104041666Y-79525000D01*
X104075000Y-79458333D01*
X104108333Y-79425000D01*
X104175000Y-79391666D01*
X104341666Y-79391666D01*
X104441666Y-79425000D01*
X104675000Y-79391666D02*
X104841666Y-80091666D01*
X104975000Y-79591666D01*
X105108333Y-80091666D01*
X105275000Y-79391666D01*
X105841666Y-79625000D02*
X105841666Y-80091666D01*
X105675000Y-79358333D02*
X105508333Y-79858333D01*
X105941666Y-79858333D01*
%TO.C,R34*%
X120640000Y-83933333D02*
X120873333Y-84266666D01*
X121040000Y-83933333D02*
X121040000Y-84633333D01*
X120773333Y-84633333D01*
X120706666Y-84600000D01*
X120673333Y-84566666D01*
X120640000Y-84500000D01*
X120640000Y-84400000D01*
X120673333Y-84333333D01*
X120706666Y-84300000D01*
X120773333Y-84266666D01*
X121040000Y-84266666D01*
X120406666Y-84633333D02*
X119973333Y-84633333D01*
X120206666Y-84366666D01*
X120106666Y-84366666D01*
X120040000Y-84333333D01*
X120006666Y-84300000D01*
X119973333Y-84233333D01*
X119973333Y-84066666D01*
X120006666Y-84000000D01*
X120040000Y-83966666D01*
X120106666Y-83933333D01*
X120306666Y-83933333D01*
X120373333Y-83966666D01*
X120406666Y-84000000D01*
X119373333Y-84400000D02*
X119373333Y-83933333D01*
X119540000Y-84666666D02*
X119706666Y-84166666D01*
X119273333Y-84166666D01*
%TO.C,D3*%
X128291666Y-71341666D02*
X127591666Y-71341666D01*
X127591666Y-71175000D01*
X127625000Y-71075000D01*
X127691666Y-71008333D01*
X127758333Y-70975000D01*
X127891666Y-70941666D01*
X127991666Y-70941666D01*
X128125000Y-70975000D01*
X128191666Y-71008333D01*
X128258333Y-71075000D01*
X128291666Y-71175000D01*
X128291666Y-71341666D01*
X127591666Y-70708333D02*
X127591666Y-70275000D01*
X127858333Y-70508333D01*
X127858333Y-70408333D01*
X127891666Y-70341666D01*
X127925000Y-70308333D01*
X127991666Y-70275000D01*
X128158333Y-70275000D01*
X128225000Y-70308333D01*
X128258333Y-70341666D01*
X128291666Y-70408333D01*
X128291666Y-70608333D01*
X128258333Y-70675000D01*
X128225000Y-70708333D01*
%TO.C,D5*%
X125291666Y-71441666D02*
X124591666Y-71441666D01*
X124591666Y-71275000D01*
X124625000Y-71175000D01*
X124691666Y-71108333D01*
X124758333Y-71075000D01*
X124891666Y-71041666D01*
X124991666Y-71041666D01*
X125125000Y-71075000D01*
X125191666Y-71108333D01*
X125258333Y-71175000D01*
X125291666Y-71275000D01*
X125291666Y-71441666D01*
X124591666Y-70408333D02*
X124591666Y-70741666D01*
X124925000Y-70775000D01*
X124891666Y-70741666D01*
X124858333Y-70675000D01*
X124858333Y-70508333D01*
X124891666Y-70441666D01*
X124925000Y-70408333D01*
X124991666Y-70375000D01*
X125158333Y-70375000D01*
X125225000Y-70408333D01*
X125258333Y-70441666D01*
X125291666Y-70508333D01*
X125291666Y-70675000D01*
X125258333Y-70741666D01*
X125225000Y-70775000D01*
%TO.C,R25*%
X95966666Y-106675000D02*
X95633333Y-106908333D01*
X95966666Y-107075000D02*
X95266666Y-107075000D01*
X95266666Y-106808333D01*
X95300000Y-106741666D01*
X95333333Y-106708333D01*
X95400000Y-106675000D01*
X95500000Y-106675000D01*
X95566666Y-106708333D01*
X95600000Y-106741666D01*
X95633333Y-106808333D01*
X95633333Y-107075000D01*
X95333333Y-106408333D02*
X95300000Y-106375000D01*
X95266666Y-106308333D01*
X95266666Y-106141666D01*
X95300000Y-106075000D01*
X95333333Y-106041666D01*
X95400000Y-106008333D01*
X95466666Y-106008333D01*
X95566666Y-106041666D01*
X95966666Y-106441666D01*
X95966666Y-106008333D01*
X95266666Y-105375000D02*
X95266666Y-105708333D01*
X95600000Y-105741666D01*
X95566666Y-105708333D01*
X95533333Y-105641666D01*
X95533333Y-105475000D01*
X95566666Y-105408333D01*
X95600000Y-105375000D01*
X95666666Y-105341666D01*
X95833333Y-105341666D01*
X95900000Y-105375000D01*
X95933333Y-105408333D01*
X95966666Y-105475000D01*
X95966666Y-105641666D01*
X95933333Y-105708333D01*
X95900000Y-105741666D01*
%TO.C,J5*%
X91861666Y-109738333D02*
X92361666Y-109738333D01*
X92461666Y-109771666D01*
X92528333Y-109838333D01*
X92561666Y-109938333D01*
X92561666Y-110005000D01*
X91861666Y-109071666D02*
X91861666Y-109405000D01*
X92195000Y-109438333D01*
X92161666Y-109405000D01*
X92128333Y-109338333D01*
X92128333Y-109171666D01*
X92161666Y-109105000D01*
X92195000Y-109071666D01*
X92261666Y-109038333D01*
X92428333Y-109038333D01*
X92495000Y-109071666D01*
X92528333Y-109105000D01*
X92561666Y-109171666D01*
X92561666Y-109338333D01*
X92528333Y-109405000D01*
X92495000Y-109438333D01*
%TO.C,R40*%
X124041666Y-79062500D02*
X123708333Y-79295833D01*
X124041666Y-79462500D02*
X123341666Y-79462500D01*
X123341666Y-79195833D01*
X123375000Y-79129166D01*
X123408333Y-79095833D01*
X123475000Y-79062500D01*
X123575000Y-79062500D01*
X123641666Y-79095833D01*
X123675000Y-79129166D01*
X123708333Y-79195833D01*
X123708333Y-79462500D01*
X123575000Y-78462500D02*
X124041666Y-78462500D01*
X123308333Y-78629166D02*
X123808333Y-78795833D01*
X123808333Y-78362500D01*
X123341666Y-77962500D02*
X123341666Y-77895833D01*
X123375000Y-77829166D01*
X123408333Y-77795833D01*
X123475000Y-77762500D01*
X123608333Y-77729166D01*
X123775000Y-77729166D01*
X123908333Y-77762500D01*
X123975000Y-77795833D01*
X124008333Y-77829166D01*
X124041666Y-77895833D01*
X124041666Y-77962500D01*
X124008333Y-78029166D01*
X123975000Y-78062500D01*
X123908333Y-78095833D01*
X123775000Y-78129166D01*
X123608333Y-78129166D01*
X123475000Y-78095833D01*
X123408333Y-78062500D01*
X123375000Y-78029166D01*
X123341666Y-77962500D01*
%TO.C,U10*%
X115216666Y-81466666D02*
X115783333Y-81466666D01*
X115850000Y-81433333D01*
X115883333Y-81400000D01*
X115916666Y-81333333D01*
X115916666Y-81200000D01*
X115883333Y-81133333D01*
X115850000Y-81100000D01*
X115783333Y-81066666D01*
X115216666Y-81066666D01*
X115916666Y-80366666D02*
X115916666Y-80766666D01*
X115916666Y-80566666D02*
X115216666Y-80566666D01*
X115316666Y-80633333D01*
X115383333Y-80700000D01*
X115416666Y-80766666D01*
X115216666Y-79933333D02*
X115216666Y-79866666D01*
X115250000Y-79800000D01*
X115283333Y-79766666D01*
X115350000Y-79733333D01*
X115483333Y-79700000D01*
X115650000Y-79700000D01*
X115783333Y-79733333D01*
X115850000Y-79766666D01*
X115883333Y-79800000D01*
X115916666Y-79866666D01*
X115916666Y-79933333D01*
X115883333Y-80000000D01*
X115850000Y-80033333D01*
X115783333Y-80066666D01*
X115650000Y-80100000D01*
X115483333Y-80100000D01*
X115350000Y-80066666D01*
X115283333Y-80033333D01*
X115250000Y-80000000D01*
X115216666Y-79933333D01*
%TO.C,R21*%
X89891666Y-106625000D02*
X89558333Y-106858333D01*
X89891666Y-107025000D02*
X89191666Y-107025000D01*
X89191666Y-106758333D01*
X89225000Y-106691666D01*
X89258333Y-106658333D01*
X89325000Y-106625000D01*
X89425000Y-106625000D01*
X89491666Y-106658333D01*
X89525000Y-106691666D01*
X89558333Y-106758333D01*
X89558333Y-107025000D01*
X89258333Y-106358333D02*
X89225000Y-106325000D01*
X89191666Y-106258333D01*
X89191666Y-106091666D01*
X89225000Y-106025000D01*
X89258333Y-105991666D01*
X89325000Y-105958333D01*
X89391666Y-105958333D01*
X89491666Y-105991666D01*
X89891666Y-106391666D01*
X89891666Y-105958333D01*
X89891666Y-105291666D02*
X89891666Y-105691666D01*
X89891666Y-105491666D02*
X89191666Y-105491666D01*
X89291666Y-105558333D01*
X89358333Y-105625000D01*
X89391666Y-105691666D01*
%TO.C,U4*%
X86566666Y-88566666D02*
X86566666Y-89133333D01*
X86600000Y-89200000D01*
X86633333Y-89233333D01*
X86700000Y-89266666D01*
X86833333Y-89266666D01*
X86900000Y-89233333D01*
X86933333Y-89200000D01*
X86966666Y-89133333D01*
X86966666Y-88566666D01*
X87600000Y-88800000D02*
X87600000Y-89266666D01*
X87433333Y-88533333D02*
X87266666Y-89033333D01*
X87700000Y-89033333D01*
%TO.C,C33*%
X80375000Y-88750000D02*
X80341666Y-88716666D01*
X80308333Y-88616666D01*
X80308333Y-88550000D01*
X80341666Y-88450000D01*
X80408333Y-88383333D01*
X80475000Y-88350000D01*
X80608333Y-88316666D01*
X80708333Y-88316666D01*
X80841666Y-88350000D01*
X80908333Y-88383333D01*
X80975000Y-88450000D01*
X81008333Y-88550000D01*
X81008333Y-88616666D01*
X80975000Y-88716666D01*
X80941666Y-88750000D01*
X81008333Y-88983333D02*
X81008333Y-89416666D01*
X80741666Y-89183333D01*
X80741666Y-89283333D01*
X80708333Y-89350000D01*
X80675000Y-89383333D01*
X80608333Y-89416666D01*
X80441666Y-89416666D01*
X80375000Y-89383333D01*
X80341666Y-89350000D01*
X80308333Y-89283333D01*
X80308333Y-89083333D01*
X80341666Y-89016666D01*
X80375000Y-88983333D01*
X81008333Y-89650000D02*
X81008333Y-90083333D01*
X80741666Y-89850000D01*
X80741666Y-89950000D01*
X80708333Y-90016666D01*
X80675000Y-90050000D01*
X80608333Y-90083333D01*
X80441666Y-90083333D01*
X80375000Y-90050000D01*
X80341666Y-90016666D01*
X80308333Y-89950000D01*
X80308333Y-89750000D01*
X80341666Y-89683333D01*
X80375000Y-89650000D01*
%TO.C,C19*%
X94915000Y-91500000D02*
X94881666Y-91533333D01*
X94781666Y-91566666D01*
X94715000Y-91566666D01*
X94615000Y-91533333D01*
X94548333Y-91466666D01*
X94515000Y-91400000D01*
X94481666Y-91266666D01*
X94481666Y-91166666D01*
X94515000Y-91033333D01*
X94548333Y-90966666D01*
X94615000Y-90900000D01*
X94715000Y-90866666D01*
X94781666Y-90866666D01*
X94881666Y-90900000D01*
X94915000Y-90933333D01*
X95581666Y-91566666D02*
X95181666Y-91566666D01*
X95381666Y-91566666D02*
X95381666Y-90866666D01*
X95315000Y-90966666D01*
X95248333Y-91033333D01*
X95181666Y-91066666D01*
X95915000Y-91566666D02*
X96048333Y-91566666D01*
X96115000Y-91533333D01*
X96148333Y-91500000D01*
X96215000Y-91400000D01*
X96248333Y-91266666D01*
X96248333Y-91000000D01*
X96215000Y-90933333D01*
X96181666Y-90900000D01*
X96115000Y-90866666D01*
X95981666Y-90866666D01*
X95915000Y-90900000D01*
X95881666Y-90933333D01*
X95848333Y-91000000D01*
X95848333Y-91166666D01*
X95881666Y-91233333D01*
X95915000Y-91266666D01*
X95981666Y-91300000D01*
X96115000Y-91300000D01*
X96181666Y-91266666D01*
X96215000Y-91233333D01*
X96248333Y-91166666D01*
%TO.C,D1*%
X70883333Y-88016666D02*
X70883333Y-87316666D01*
X71050000Y-87316666D01*
X71150000Y-87350000D01*
X71216666Y-87416666D01*
X71250000Y-87483333D01*
X71283333Y-87616666D01*
X71283333Y-87716666D01*
X71250000Y-87850000D01*
X71216666Y-87916666D01*
X71150000Y-87983333D01*
X71050000Y-88016666D01*
X70883333Y-88016666D01*
X71950000Y-88016666D02*
X71550000Y-88016666D01*
X71750000Y-88016666D02*
X71750000Y-87316666D01*
X71683333Y-87416666D01*
X71616666Y-87483333D01*
X71550000Y-87516666D01*
%TO.C,R15*%
X103775000Y-100866666D02*
X103541666Y-100533333D01*
X103375000Y-100866666D02*
X103375000Y-100166666D01*
X103641666Y-100166666D01*
X103708333Y-100200000D01*
X103741666Y-100233333D01*
X103775000Y-100300000D01*
X103775000Y-100400000D01*
X103741666Y-100466666D01*
X103708333Y-100500000D01*
X103641666Y-100533333D01*
X103375000Y-100533333D01*
X104441666Y-100866666D02*
X104041666Y-100866666D01*
X104241666Y-100866666D02*
X104241666Y-100166666D01*
X104175000Y-100266666D01*
X104108333Y-100333333D01*
X104041666Y-100366666D01*
X105075000Y-100166666D02*
X104741666Y-100166666D01*
X104708333Y-100500000D01*
X104741666Y-100466666D01*
X104808333Y-100433333D01*
X104975000Y-100433333D01*
X105041666Y-100466666D01*
X105075000Y-100500000D01*
X105108333Y-100566666D01*
X105108333Y-100733333D01*
X105075000Y-100800000D01*
X105041666Y-100833333D01*
X104975000Y-100866666D01*
X104808333Y-100866666D01*
X104741666Y-100833333D01*
X104708333Y-100800000D01*
%TO.C,R8*%
X104058333Y-83941666D02*
X103825000Y-83608333D01*
X103658333Y-83941666D02*
X103658333Y-83241666D01*
X103925000Y-83241666D01*
X103991666Y-83275000D01*
X104025000Y-83308333D01*
X104058333Y-83375000D01*
X104058333Y-83475000D01*
X104025000Y-83541666D01*
X103991666Y-83575000D01*
X103925000Y-83608333D01*
X103658333Y-83608333D01*
X104458333Y-83541666D02*
X104391666Y-83508333D01*
X104358333Y-83475000D01*
X104325000Y-83408333D01*
X104325000Y-83375000D01*
X104358333Y-83308333D01*
X104391666Y-83275000D01*
X104458333Y-83241666D01*
X104591666Y-83241666D01*
X104658333Y-83275000D01*
X104691666Y-83308333D01*
X104725000Y-83375000D01*
X104725000Y-83408333D01*
X104691666Y-83475000D01*
X104658333Y-83508333D01*
X104591666Y-83541666D01*
X104458333Y-83541666D01*
X104391666Y-83575000D01*
X104358333Y-83608333D01*
X104325000Y-83675000D01*
X104325000Y-83808333D01*
X104358333Y-83875000D01*
X104391666Y-83908333D01*
X104458333Y-83941666D01*
X104591666Y-83941666D01*
X104658333Y-83908333D01*
X104691666Y-83875000D01*
X104725000Y-83808333D01*
X104725000Y-83675000D01*
X104691666Y-83608333D01*
X104658333Y-83575000D01*
X104591666Y-83541666D01*
%TO.C,C17*%
X84575000Y-89125000D02*
X84608333Y-89158333D01*
X84641666Y-89258333D01*
X84641666Y-89325000D01*
X84608333Y-89425000D01*
X84541666Y-89491666D01*
X84475000Y-89525000D01*
X84341666Y-89558333D01*
X84241666Y-89558333D01*
X84108333Y-89525000D01*
X84041666Y-89491666D01*
X83975000Y-89425000D01*
X83941666Y-89325000D01*
X83941666Y-89258333D01*
X83975000Y-89158333D01*
X84008333Y-89125000D01*
X84641666Y-88458333D02*
X84641666Y-88858333D01*
X84641666Y-88658333D02*
X83941666Y-88658333D01*
X84041666Y-88725000D01*
X84108333Y-88791666D01*
X84141666Y-88858333D01*
X83941666Y-88225000D02*
X83941666Y-87758333D01*
X84641666Y-88058333D01*
%TO.C,C16*%
X83425000Y-108400000D02*
X83391666Y-108433333D01*
X83291666Y-108466666D01*
X83225000Y-108466666D01*
X83125000Y-108433333D01*
X83058333Y-108366666D01*
X83025000Y-108300000D01*
X82991666Y-108166666D01*
X82991666Y-108066666D01*
X83025000Y-107933333D01*
X83058333Y-107866666D01*
X83125000Y-107800000D01*
X83225000Y-107766666D01*
X83291666Y-107766666D01*
X83391666Y-107800000D01*
X83425000Y-107833333D01*
X84091666Y-108466666D02*
X83691666Y-108466666D01*
X83891666Y-108466666D02*
X83891666Y-107766666D01*
X83825000Y-107866666D01*
X83758333Y-107933333D01*
X83691666Y-107966666D01*
X84691666Y-107766666D02*
X84558333Y-107766666D01*
X84491666Y-107800000D01*
X84458333Y-107833333D01*
X84391666Y-107933333D01*
X84358333Y-108066666D01*
X84358333Y-108333333D01*
X84391666Y-108400000D01*
X84425000Y-108433333D01*
X84491666Y-108466666D01*
X84625000Y-108466666D01*
X84691666Y-108433333D01*
X84725000Y-108400000D01*
X84758333Y-108333333D01*
X84758333Y-108166666D01*
X84725000Y-108100000D01*
X84691666Y-108066666D01*
X84625000Y-108033333D01*
X84491666Y-108033333D01*
X84425000Y-108066666D01*
X84391666Y-108100000D01*
X84358333Y-108166666D01*
%TO.C,R27*%
X108340000Y-104116666D02*
X108106666Y-103783333D01*
X107940000Y-104116666D02*
X107940000Y-103416666D01*
X108206666Y-103416666D01*
X108273333Y-103450000D01*
X108306666Y-103483333D01*
X108340000Y-103550000D01*
X108340000Y-103650000D01*
X108306666Y-103716666D01*
X108273333Y-103750000D01*
X108206666Y-103783333D01*
X107940000Y-103783333D01*
X108606666Y-103483333D02*
X108640000Y-103450000D01*
X108706666Y-103416666D01*
X108873333Y-103416666D01*
X108940000Y-103450000D01*
X108973333Y-103483333D01*
X109006666Y-103550000D01*
X109006666Y-103616666D01*
X108973333Y-103716666D01*
X108573333Y-104116666D01*
X109006666Y-104116666D01*
X109240000Y-103416666D02*
X109706666Y-103416666D01*
X109406666Y-104116666D01*
%TO.C,R16*%
X103750000Y-99266666D02*
X103516666Y-98933333D01*
X103350000Y-99266666D02*
X103350000Y-98566666D01*
X103616666Y-98566666D01*
X103683333Y-98600000D01*
X103716666Y-98633333D01*
X103750000Y-98700000D01*
X103750000Y-98800000D01*
X103716666Y-98866666D01*
X103683333Y-98900000D01*
X103616666Y-98933333D01*
X103350000Y-98933333D01*
X104416666Y-99266666D02*
X104016666Y-99266666D01*
X104216666Y-99266666D02*
X104216666Y-98566666D01*
X104150000Y-98666666D01*
X104083333Y-98733333D01*
X104016666Y-98766666D01*
X105016666Y-98566666D02*
X104883333Y-98566666D01*
X104816666Y-98600000D01*
X104783333Y-98633333D01*
X104716666Y-98733333D01*
X104683333Y-98866666D01*
X104683333Y-99133333D01*
X104716666Y-99200000D01*
X104750000Y-99233333D01*
X104816666Y-99266666D01*
X104950000Y-99266666D01*
X105016666Y-99233333D01*
X105050000Y-99200000D01*
X105083333Y-99133333D01*
X105083333Y-98966666D01*
X105050000Y-98900000D01*
X105016666Y-98866666D01*
X104950000Y-98833333D01*
X104816666Y-98833333D01*
X104750000Y-98866666D01*
X104716666Y-98900000D01*
X104683333Y-98966666D01*
%TO.C,SW2*%
X75416666Y-111533333D02*
X75516666Y-111566666D01*
X75683333Y-111566666D01*
X75750000Y-111533333D01*
X75783333Y-111500000D01*
X75816666Y-111433333D01*
X75816666Y-111366666D01*
X75783333Y-111300000D01*
X75750000Y-111266666D01*
X75683333Y-111233333D01*
X75550000Y-111200000D01*
X75483333Y-111166666D01*
X75450000Y-111133333D01*
X75416666Y-111066666D01*
X75416666Y-111000000D01*
X75450000Y-110933333D01*
X75483333Y-110900000D01*
X75550000Y-110866666D01*
X75716666Y-110866666D01*
X75816666Y-110900000D01*
X76050000Y-110866666D02*
X76216666Y-111566666D01*
X76350000Y-111066666D01*
X76483333Y-111566666D01*
X76650000Y-110866666D01*
X76883333Y-110933333D02*
X76916666Y-110900000D01*
X76983333Y-110866666D01*
X77150000Y-110866666D01*
X77216666Y-110900000D01*
X77250000Y-110933333D01*
X77283333Y-111000000D01*
X77283333Y-111066666D01*
X77250000Y-111166666D01*
X76850000Y-111566666D01*
X77283333Y-111566666D01*
%TO.C,R13*%
X103825000Y-103966666D02*
X103591666Y-103633333D01*
X103425000Y-103966666D02*
X103425000Y-103266666D01*
X103691666Y-103266666D01*
X103758333Y-103300000D01*
X103791666Y-103333333D01*
X103825000Y-103400000D01*
X103825000Y-103500000D01*
X103791666Y-103566666D01*
X103758333Y-103600000D01*
X103691666Y-103633333D01*
X103425000Y-103633333D01*
X104491666Y-103966666D02*
X104091666Y-103966666D01*
X104291666Y-103966666D02*
X104291666Y-103266666D01*
X104225000Y-103366666D01*
X104158333Y-103433333D01*
X104091666Y-103466666D01*
X104725000Y-103266666D02*
X105158333Y-103266666D01*
X104925000Y-103533333D01*
X105025000Y-103533333D01*
X105091666Y-103566666D01*
X105125000Y-103600000D01*
X105158333Y-103666666D01*
X105158333Y-103833333D01*
X105125000Y-103900000D01*
X105091666Y-103933333D01*
X105025000Y-103966666D01*
X104825000Y-103966666D01*
X104758333Y-103933333D01*
X104725000Y-103900000D01*
%TO.C,R37*%
X128441666Y-79062500D02*
X128108333Y-79295833D01*
X128441666Y-79462500D02*
X127741666Y-79462500D01*
X127741666Y-79195833D01*
X127775000Y-79129166D01*
X127808333Y-79095833D01*
X127875000Y-79062500D01*
X127975000Y-79062500D01*
X128041666Y-79095833D01*
X128075000Y-79129166D01*
X128108333Y-79195833D01*
X128108333Y-79462500D01*
X127741666Y-78829166D02*
X127741666Y-78395833D01*
X128008333Y-78629166D01*
X128008333Y-78529166D01*
X128041666Y-78462500D01*
X128075000Y-78429166D01*
X128141666Y-78395833D01*
X128308333Y-78395833D01*
X128375000Y-78429166D01*
X128408333Y-78462500D01*
X128441666Y-78529166D01*
X128441666Y-78729166D01*
X128408333Y-78795833D01*
X128375000Y-78829166D01*
X127741666Y-78162500D02*
X127741666Y-77695833D01*
X128441666Y-77995833D01*
%TO.C,C23*%
X84450000Y-98300000D02*
X84416666Y-98266666D01*
X84383333Y-98166666D01*
X84383333Y-98100000D01*
X84416666Y-98000000D01*
X84483333Y-97933333D01*
X84550000Y-97900000D01*
X84683333Y-97866666D01*
X84783333Y-97866666D01*
X84916666Y-97900000D01*
X84983333Y-97933333D01*
X85050000Y-98000000D01*
X85083333Y-98100000D01*
X85083333Y-98166666D01*
X85050000Y-98266666D01*
X85016666Y-98300000D01*
X85016666Y-98566666D02*
X85050000Y-98600000D01*
X85083333Y-98666666D01*
X85083333Y-98833333D01*
X85050000Y-98900000D01*
X85016666Y-98933333D01*
X84950000Y-98966666D01*
X84883333Y-98966666D01*
X84783333Y-98933333D01*
X84383333Y-98533333D01*
X84383333Y-98966666D01*
X85083333Y-99200000D02*
X85083333Y-99633333D01*
X84816666Y-99400000D01*
X84816666Y-99500000D01*
X84783333Y-99566666D01*
X84750000Y-99600000D01*
X84683333Y-99633333D01*
X84516666Y-99633333D01*
X84450000Y-99600000D01*
X84416666Y-99566666D01*
X84383333Y-99500000D01*
X84383333Y-99300000D01*
X84416666Y-99233333D01*
X84450000Y-99200000D01*
%TO.C,C30*%
X80850000Y-92050000D02*
X80816666Y-92016666D01*
X80783333Y-91916666D01*
X80783333Y-91850000D01*
X80816666Y-91750000D01*
X80883333Y-91683333D01*
X80950000Y-91650000D01*
X81083333Y-91616666D01*
X81183333Y-91616666D01*
X81316666Y-91650000D01*
X81383333Y-91683333D01*
X81450000Y-91750000D01*
X81483333Y-91850000D01*
X81483333Y-91916666D01*
X81450000Y-92016666D01*
X81416666Y-92050000D01*
X81483333Y-92283333D02*
X81483333Y-92716666D01*
X81216666Y-92483333D01*
X81216666Y-92583333D01*
X81183333Y-92650000D01*
X81150000Y-92683333D01*
X81083333Y-92716666D01*
X80916666Y-92716666D01*
X80850000Y-92683333D01*
X80816666Y-92650000D01*
X80783333Y-92583333D01*
X80783333Y-92383333D01*
X80816666Y-92316666D01*
X80850000Y-92283333D01*
X81483333Y-93150000D02*
X81483333Y-93216666D01*
X81450000Y-93283333D01*
X81416666Y-93316666D01*
X81350000Y-93350000D01*
X81216666Y-93383333D01*
X81050000Y-93383333D01*
X80916666Y-93350000D01*
X80850000Y-93316666D01*
X80816666Y-93283333D01*
X80783333Y-93216666D01*
X80783333Y-93150000D01*
X80816666Y-93083333D01*
X80850000Y-93050000D01*
X80916666Y-93016666D01*
X81050000Y-92983333D01*
X81216666Y-92983333D01*
X81350000Y-93016666D01*
X81416666Y-93050000D01*
X81450000Y-93083333D01*
X81483333Y-93150000D01*
%TO.C,L1*%
X143799166Y-85148333D02*
X144132500Y-85148333D01*
X144132500Y-85848333D01*
X143199166Y-85148333D02*
X143599166Y-85148333D01*
X143399166Y-85148333D02*
X143399166Y-85848333D01*
X143465833Y-85748333D01*
X143532500Y-85681666D01*
X143599166Y-85648333D01*
%TO.C,R19*%
X103850000Y-94891666D02*
X103616666Y-94558333D01*
X103450000Y-94891666D02*
X103450000Y-94191666D01*
X103716666Y-94191666D01*
X103783333Y-94225000D01*
X103816666Y-94258333D01*
X103850000Y-94325000D01*
X103850000Y-94425000D01*
X103816666Y-94491666D01*
X103783333Y-94525000D01*
X103716666Y-94558333D01*
X103450000Y-94558333D01*
X104516666Y-94891666D02*
X104116666Y-94891666D01*
X104316666Y-94891666D02*
X104316666Y-94191666D01*
X104250000Y-94291666D01*
X104183333Y-94358333D01*
X104116666Y-94391666D01*
X104850000Y-94891666D02*
X104983333Y-94891666D01*
X105050000Y-94858333D01*
X105083333Y-94825000D01*
X105150000Y-94725000D01*
X105183333Y-94591666D01*
X105183333Y-94325000D01*
X105150000Y-94258333D01*
X105116666Y-94225000D01*
X105050000Y-94191666D01*
X104916666Y-94191666D01*
X104850000Y-94225000D01*
X104816666Y-94258333D01*
X104783333Y-94325000D01*
X104783333Y-94491666D01*
X104816666Y-94558333D01*
X104850000Y-94591666D01*
X104916666Y-94625000D01*
X105050000Y-94625000D01*
X105116666Y-94591666D01*
X105150000Y-94558333D01*
X105183333Y-94491666D01*
%TO.C,R12*%
X86925000Y-93866666D02*
X86691666Y-93533333D01*
X86525000Y-93866666D02*
X86525000Y-93166666D01*
X86791666Y-93166666D01*
X86858333Y-93200000D01*
X86891666Y-93233333D01*
X86925000Y-93300000D01*
X86925000Y-93400000D01*
X86891666Y-93466666D01*
X86858333Y-93500000D01*
X86791666Y-93533333D01*
X86525000Y-93533333D01*
X87591666Y-93866666D02*
X87191666Y-93866666D01*
X87391666Y-93866666D02*
X87391666Y-93166666D01*
X87325000Y-93266666D01*
X87258333Y-93333333D01*
X87191666Y-93366666D01*
X87858333Y-93233333D02*
X87891666Y-93200000D01*
X87958333Y-93166666D01*
X88125000Y-93166666D01*
X88191666Y-93200000D01*
X88225000Y-93233333D01*
X88258333Y-93300000D01*
X88258333Y-93366666D01*
X88225000Y-93466666D01*
X87825000Y-93866666D01*
X88258333Y-93866666D01*
%TO.C,R24*%
X94216666Y-106650000D02*
X93883333Y-106883333D01*
X94216666Y-107050000D02*
X93516666Y-107050000D01*
X93516666Y-106783333D01*
X93550000Y-106716666D01*
X93583333Y-106683333D01*
X93650000Y-106650000D01*
X93750000Y-106650000D01*
X93816666Y-106683333D01*
X93850000Y-106716666D01*
X93883333Y-106783333D01*
X93883333Y-107050000D01*
X93583333Y-106383333D02*
X93550000Y-106350000D01*
X93516666Y-106283333D01*
X93516666Y-106116666D01*
X93550000Y-106050000D01*
X93583333Y-106016666D01*
X93650000Y-105983333D01*
X93716666Y-105983333D01*
X93816666Y-106016666D01*
X94216666Y-106416666D01*
X94216666Y-105983333D01*
X93750000Y-105383333D02*
X94216666Y-105383333D01*
X93483333Y-105550000D02*
X93983333Y-105716666D01*
X93983333Y-105283333D01*
%TO.C,D6*%
X123916666Y-71416666D02*
X123216666Y-71416666D01*
X123216666Y-71250000D01*
X123250000Y-71150000D01*
X123316666Y-71083333D01*
X123383333Y-71050000D01*
X123516666Y-71016666D01*
X123616666Y-71016666D01*
X123750000Y-71050000D01*
X123816666Y-71083333D01*
X123883333Y-71150000D01*
X123916666Y-71250000D01*
X123916666Y-71416666D01*
X123216666Y-70416666D02*
X123216666Y-70550000D01*
X123250000Y-70616666D01*
X123283333Y-70650000D01*
X123383333Y-70716666D01*
X123516666Y-70750000D01*
X123783333Y-70750000D01*
X123850000Y-70716666D01*
X123883333Y-70683333D01*
X123916666Y-70616666D01*
X123916666Y-70483333D01*
X123883333Y-70416666D01*
X123850000Y-70383333D01*
X123783333Y-70350000D01*
X123616666Y-70350000D01*
X123550000Y-70383333D01*
X123516666Y-70416666D01*
X123483333Y-70483333D01*
X123483333Y-70616666D01*
X123516666Y-70683333D01*
X123550000Y-70716666D01*
X123616666Y-70750000D01*
%TO.C,SW3*%
X94166666Y-80183333D02*
X94266666Y-80216666D01*
X94433333Y-80216666D01*
X94500000Y-80183333D01*
X94533333Y-80150000D01*
X94566666Y-80083333D01*
X94566666Y-80016666D01*
X94533333Y-79950000D01*
X94500000Y-79916666D01*
X94433333Y-79883333D01*
X94300000Y-79850000D01*
X94233333Y-79816666D01*
X94200000Y-79783333D01*
X94166666Y-79716666D01*
X94166666Y-79650000D01*
X94200000Y-79583333D01*
X94233333Y-79550000D01*
X94300000Y-79516666D01*
X94466666Y-79516666D01*
X94566666Y-79550000D01*
X94800000Y-79516666D02*
X94966666Y-80216666D01*
X95100000Y-79716666D01*
X95233333Y-80216666D01*
X95400000Y-79516666D01*
X95600000Y-79516666D02*
X96033333Y-79516666D01*
X95800000Y-79783333D01*
X95900000Y-79783333D01*
X95966666Y-79816666D01*
X96000000Y-79850000D01*
X96033333Y-79916666D01*
X96033333Y-80083333D01*
X96000000Y-80150000D01*
X95966666Y-80183333D01*
X95900000Y-80216666D01*
X95700000Y-80216666D01*
X95633333Y-80183333D01*
X95600000Y-80150000D01*
%TO.C,U11*%
X71108333Y-95441666D02*
X71108333Y-96008333D01*
X71141666Y-96075000D01*
X71175000Y-96108333D01*
X71241666Y-96141666D01*
X71375000Y-96141666D01*
X71441666Y-96108333D01*
X71475000Y-96075000D01*
X71508333Y-96008333D01*
X71508333Y-95441666D01*
X72208333Y-96141666D02*
X71808333Y-96141666D01*
X72008333Y-96141666D02*
X72008333Y-95441666D01*
X71941666Y-95541666D01*
X71875000Y-95608333D01*
X71808333Y-95641666D01*
X72875000Y-96141666D02*
X72475000Y-96141666D01*
X72675000Y-96141666D02*
X72675000Y-95441666D01*
X72608333Y-95541666D01*
X72541666Y-95608333D01*
X72475000Y-95641666D01*
%TO.C,C13*%
X112995000Y-82725000D02*
X113028333Y-82758333D01*
X113061666Y-82858333D01*
X113061666Y-82925000D01*
X113028333Y-83025000D01*
X112961666Y-83091666D01*
X112895000Y-83125000D01*
X112761666Y-83158333D01*
X112661666Y-83158333D01*
X112528333Y-83125000D01*
X112461666Y-83091666D01*
X112395000Y-83025000D01*
X112361666Y-82925000D01*
X112361666Y-82858333D01*
X112395000Y-82758333D01*
X112428333Y-82725000D01*
X113061666Y-82058333D02*
X113061666Y-82458333D01*
X113061666Y-82258333D02*
X112361666Y-82258333D01*
X112461666Y-82325000D01*
X112528333Y-82391666D01*
X112561666Y-82458333D01*
X112361666Y-81825000D02*
X112361666Y-81391666D01*
X112628333Y-81625000D01*
X112628333Y-81525000D01*
X112661666Y-81458333D01*
X112695000Y-81425000D01*
X112761666Y-81391666D01*
X112928333Y-81391666D01*
X112995000Y-81425000D01*
X113028333Y-81458333D01*
X113061666Y-81525000D01*
X113061666Y-81725000D01*
X113028333Y-81791666D01*
X112995000Y-81825000D01*
%TO.C,U5*%
X142466666Y-48106666D02*
X142466666Y-48673333D01*
X142500000Y-48740000D01*
X142533333Y-48773333D01*
X142600000Y-48806666D01*
X142733333Y-48806666D01*
X142800000Y-48773333D01*
X142833333Y-48740000D01*
X142866666Y-48673333D01*
X142866666Y-48106666D01*
X143533333Y-48106666D02*
X143200000Y-48106666D01*
X143166666Y-48440000D01*
X143200000Y-48406666D01*
X143266666Y-48373333D01*
X143433333Y-48373333D01*
X143500000Y-48406666D01*
X143533333Y-48440000D01*
X143566666Y-48506666D01*
X143566666Y-48673333D01*
X143533333Y-48740000D01*
X143500000Y-48773333D01*
X143433333Y-48806666D01*
X143266666Y-48806666D01*
X143200000Y-48773333D01*
X143166666Y-48740000D01*
%TO.C,R44*%
X135721666Y-102575000D02*
X135388333Y-102808333D01*
X135721666Y-102975000D02*
X135021666Y-102975000D01*
X135021666Y-102708333D01*
X135055000Y-102641666D01*
X135088333Y-102608333D01*
X135155000Y-102575000D01*
X135255000Y-102575000D01*
X135321666Y-102608333D01*
X135355000Y-102641666D01*
X135388333Y-102708333D01*
X135388333Y-102975000D01*
X135255000Y-101975000D02*
X135721666Y-101975000D01*
X134988333Y-102141666D02*
X135488333Y-102308333D01*
X135488333Y-101875000D01*
X135255000Y-101308333D02*
X135721666Y-101308333D01*
X134988333Y-101475000D02*
X135488333Y-101641666D01*
X135488333Y-101208333D01*
%TO.C,R18*%
X103800000Y-96366666D02*
X103566666Y-96033333D01*
X103400000Y-96366666D02*
X103400000Y-95666666D01*
X103666666Y-95666666D01*
X103733333Y-95700000D01*
X103766666Y-95733333D01*
X103800000Y-95800000D01*
X103800000Y-95900000D01*
X103766666Y-95966666D01*
X103733333Y-96000000D01*
X103666666Y-96033333D01*
X103400000Y-96033333D01*
X104466666Y-96366666D02*
X104066666Y-96366666D01*
X104266666Y-96366666D02*
X104266666Y-95666666D01*
X104200000Y-95766666D01*
X104133333Y-95833333D01*
X104066666Y-95866666D01*
X104866666Y-95966666D02*
X104800000Y-95933333D01*
X104766666Y-95900000D01*
X104733333Y-95833333D01*
X104733333Y-95800000D01*
X104766666Y-95733333D01*
X104800000Y-95700000D01*
X104866666Y-95666666D01*
X105000000Y-95666666D01*
X105066666Y-95700000D01*
X105100000Y-95733333D01*
X105133333Y-95800000D01*
X105133333Y-95833333D01*
X105100000Y-95900000D01*
X105066666Y-95933333D01*
X105000000Y-95966666D01*
X104866666Y-95966666D01*
X104800000Y-96000000D01*
X104766666Y-96033333D01*
X104733333Y-96100000D01*
X104733333Y-96233333D01*
X104766666Y-96300000D01*
X104800000Y-96333333D01*
X104866666Y-96366666D01*
X105000000Y-96366666D01*
X105066666Y-96333333D01*
X105100000Y-96300000D01*
X105133333Y-96233333D01*
X105133333Y-96100000D01*
X105100000Y-96033333D01*
X105066666Y-96000000D01*
X105000000Y-95966666D01*
%TO.C,C37*%
X80450000Y-95300000D02*
X80416666Y-95266666D01*
X80383333Y-95166666D01*
X80383333Y-95100000D01*
X80416666Y-95000000D01*
X80483333Y-94933333D01*
X80550000Y-94900000D01*
X80683333Y-94866666D01*
X80783333Y-94866666D01*
X80916666Y-94900000D01*
X80983333Y-94933333D01*
X81050000Y-95000000D01*
X81083333Y-95100000D01*
X81083333Y-95166666D01*
X81050000Y-95266666D01*
X81016666Y-95300000D01*
X81083333Y-95533333D02*
X81083333Y-95966666D01*
X80816666Y-95733333D01*
X80816666Y-95833333D01*
X80783333Y-95900000D01*
X80750000Y-95933333D01*
X80683333Y-95966666D01*
X80516666Y-95966666D01*
X80450000Y-95933333D01*
X80416666Y-95900000D01*
X80383333Y-95833333D01*
X80383333Y-95633333D01*
X80416666Y-95566666D01*
X80450000Y-95533333D01*
X81083333Y-96200000D02*
X81083333Y-96666666D01*
X80383333Y-96366666D01*
%TO.C,U1*%
X108416666Y-92191666D02*
X108416666Y-92758333D01*
X108450000Y-92825000D01*
X108483333Y-92858333D01*
X108550000Y-92891666D01*
X108683333Y-92891666D01*
X108750000Y-92858333D01*
X108783333Y-92825000D01*
X108816666Y-92758333D01*
X108816666Y-92191666D01*
X109516666Y-92891666D02*
X109116666Y-92891666D01*
X109316666Y-92891666D02*
X109316666Y-92191666D01*
X109250000Y-92291666D01*
X109183333Y-92358333D01*
X109116666Y-92391666D01*
%TO.C,R30*%
X135970000Y-95826666D02*
X135736666Y-95493333D01*
X135570000Y-95826666D02*
X135570000Y-95126666D01*
X135836666Y-95126666D01*
X135903333Y-95160000D01*
X135936666Y-95193333D01*
X135970000Y-95260000D01*
X135970000Y-95360000D01*
X135936666Y-95426666D01*
X135903333Y-95460000D01*
X135836666Y-95493333D01*
X135570000Y-95493333D01*
X136203333Y-95126666D02*
X136636666Y-95126666D01*
X136403333Y-95393333D01*
X136503333Y-95393333D01*
X136570000Y-95426666D01*
X136603333Y-95460000D01*
X136636666Y-95526666D01*
X136636666Y-95693333D01*
X136603333Y-95760000D01*
X136570000Y-95793333D01*
X136503333Y-95826666D01*
X136303333Y-95826666D01*
X136236666Y-95793333D01*
X136203333Y-95760000D01*
X137070000Y-95126666D02*
X137136666Y-95126666D01*
X137203333Y-95160000D01*
X137236666Y-95193333D01*
X137270000Y-95260000D01*
X137303333Y-95393333D01*
X137303333Y-95560000D01*
X137270000Y-95693333D01*
X137236666Y-95760000D01*
X137203333Y-95793333D01*
X137136666Y-95826666D01*
X137070000Y-95826666D01*
X137003333Y-95793333D01*
X136970000Y-95760000D01*
X136936666Y-95693333D01*
X136903333Y-95560000D01*
X136903333Y-95393333D01*
X136936666Y-95260000D01*
X136970000Y-95193333D01*
X137003333Y-95160000D01*
X137070000Y-95126666D01*
%TO.C,D4*%
X126841666Y-71391666D02*
X126141666Y-71391666D01*
X126141666Y-71225000D01*
X126175000Y-71125000D01*
X126241666Y-71058333D01*
X126308333Y-71025000D01*
X126441666Y-70991666D01*
X126541666Y-70991666D01*
X126675000Y-71025000D01*
X126741666Y-71058333D01*
X126808333Y-71125000D01*
X126841666Y-71225000D01*
X126841666Y-71391666D01*
X126375000Y-70391666D02*
X126841666Y-70391666D01*
X126108333Y-70558333D02*
X126608333Y-70725000D01*
X126608333Y-70291666D01*
%TO.C,R9*%
X90633333Y-89336666D02*
X90400000Y-89003333D01*
X90233333Y-89336666D02*
X90233333Y-88636666D01*
X90500000Y-88636666D01*
X90566666Y-88670000D01*
X90600000Y-88703333D01*
X90633333Y-88770000D01*
X90633333Y-88870000D01*
X90600000Y-88936666D01*
X90566666Y-88970000D01*
X90500000Y-89003333D01*
X90233333Y-89003333D01*
X90966666Y-89336666D02*
X91100000Y-89336666D01*
X91166666Y-89303333D01*
X91200000Y-89270000D01*
X91266666Y-89170000D01*
X91300000Y-89036666D01*
X91300000Y-88770000D01*
X91266666Y-88703333D01*
X91233333Y-88670000D01*
X91166666Y-88636666D01*
X91033333Y-88636666D01*
X90966666Y-88670000D01*
X90933333Y-88703333D01*
X90900000Y-88770000D01*
X90900000Y-88936666D01*
X90933333Y-89003333D01*
X90966666Y-89036666D01*
X91033333Y-89070000D01*
X91166666Y-89070000D01*
X91233333Y-89036666D01*
X91266666Y-89003333D01*
X91300000Y-88936666D01*
%TO.C,R33*%
X114450000Y-84811666D02*
X114216666Y-84478333D01*
X114050000Y-84811666D02*
X114050000Y-84111666D01*
X114316666Y-84111666D01*
X114383333Y-84145000D01*
X114416666Y-84178333D01*
X114450000Y-84245000D01*
X114450000Y-84345000D01*
X114416666Y-84411666D01*
X114383333Y-84445000D01*
X114316666Y-84478333D01*
X114050000Y-84478333D01*
X114683333Y-84111666D02*
X115116666Y-84111666D01*
X114883333Y-84378333D01*
X114983333Y-84378333D01*
X115050000Y-84411666D01*
X115083333Y-84445000D01*
X115116666Y-84511666D01*
X115116666Y-84678333D01*
X115083333Y-84745000D01*
X115050000Y-84778333D01*
X114983333Y-84811666D01*
X114783333Y-84811666D01*
X114716666Y-84778333D01*
X114683333Y-84745000D01*
X115350000Y-84111666D02*
X115783333Y-84111666D01*
X115550000Y-84378333D01*
X115650000Y-84378333D01*
X115716666Y-84411666D01*
X115750000Y-84445000D01*
X115783333Y-84511666D01*
X115783333Y-84678333D01*
X115750000Y-84745000D01*
X115716666Y-84778333D01*
X115650000Y-84811666D01*
X115450000Y-84811666D01*
X115383333Y-84778333D01*
X115350000Y-84745000D01*
%TO.C,R39*%
X125416666Y-79050000D02*
X125083333Y-79283333D01*
X125416666Y-79450000D02*
X124716666Y-79450000D01*
X124716666Y-79183333D01*
X124750000Y-79116666D01*
X124783333Y-79083333D01*
X124850000Y-79050000D01*
X124950000Y-79050000D01*
X125016666Y-79083333D01*
X125050000Y-79116666D01*
X125083333Y-79183333D01*
X125083333Y-79450000D01*
X124716666Y-78816666D02*
X124716666Y-78383333D01*
X124983333Y-78616666D01*
X124983333Y-78516666D01*
X125016666Y-78450000D01*
X125050000Y-78416666D01*
X125116666Y-78383333D01*
X125283333Y-78383333D01*
X125350000Y-78416666D01*
X125383333Y-78450000D01*
X125416666Y-78516666D01*
X125416666Y-78716666D01*
X125383333Y-78783333D01*
X125350000Y-78816666D01*
X125416666Y-78050000D02*
X125416666Y-77916666D01*
X125383333Y-77850000D01*
X125350000Y-77816666D01*
X125250000Y-77750000D01*
X125116666Y-77716666D01*
X124850000Y-77716666D01*
X124783333Y-77750000D01*
X124750000Y-77783333D01*
X124716666Y-77850000D01*
X124716666Y-77983333D01*
X124750000Y-78050000D01*
X124783333Y-78083333D01*
X124850000Y-78116666D01*
X125016666Y-78116666D01*
X125083333Y-78083333D01*
X125116666Y-78050000D01*
X125150000Y-77983333D01*
X125150000Y-77850000D01*
X125116666Y-77783333D01*
X125083333Y-77750000D01*
X125016666Y-77716666D01*
%TO.C,C15*%
X107800000Y-90550000D02*
X107833333Y-90583333D01*
X107866666Y-90683333D01*
X107866666Y-90750000D01*
X107833333Y-90850000D01*
X107766666Y-90916666D01*
X107700000Y-90950000D01*
X107566666Y-90983333D01*
X107466666Y-90983333D01*
X107333333Y-90950000D01*
X107266666Y-90916666D01*
X107200000Y-90850000D01*
X107166666Y-90750000D01*
X107166666Y-90683333D01*
X107200000Y-90583333D01*
X107233333Y-90550000D01*
X107866666Y-89883333D02*
X107866666Y-90283333D01*
X107866666Y-90083333D02*
X107166666Y-90083333D01*
X107266666Y-90150000D01*
X107333333Y-90216666D01*
X107366666Y-90283333D01*
X107166666Y-89250000D02*
X107166666Y-89583333D01*
X107500000Y-89616666D01*
X107466666Y-89583333D01*
X107433333Y-89516666D01*
X107433333Y-89350000D01*
X107466666Y-89283333D01*
X107500000Y-89250000D01*
X107566666Y-89216666D01*
X107733333Y-89216666D01*
X107800000Y-89250000D01*
X107833333Y-89283333D01*
X107866666Y-89350000D01*
X107866666Y-89516666D01*
X107833333Y-89583333D01*
X107800000Y-89616666D01*
D12*
%TO.C,C12*%
X118760000Y-101489420D02*
X118760000Y-101770580D01*
X119780000Y-101489420D02*
X119780000Y-101770580D01*
%TO.C,R6*%
X103297500Y-85762258D02*
X103297500Y-85287742D01*
X102252500Y-85762258D02*
X102252500Y-85287742D01*
%TO.C,R10*%
X100397500Y-85287742D02*
X100397500Y-85762258D01*
X99352500Y-85287742D02*
X99352500Y-85762258D01*
%TO.C,C14*%
X115115000Y-82415580D02*
X115115000Y-82134420D01*
X116135000Y-82415580D02*
X116135000Y-82134420D01*
%TO.C,R46*%
X108212742Y-82327500D02*
X108687258Y-82327500D01*
X108212742Y-83372500D02*
X108687258Y-83372500D01*
D13*
%TO.C,J2*%
X78500000Y-83950000D02*
X78500000Y-81900000D01*
X78500000Y-78100000D02*
X78500000Y-76050000D01*
X70900000Y-77800000D02*
X70900000Y-82200000D01*
X74500000Y-83950000D02*
X78500000Y-83950000D01*
X78500000Y-76050000D02*
X74500000Y-76050000D01*
D14*
X79600000Y-77850000D02*
G75*
G03*
X79600000Y-77850000I-100000J0D01*
G01*
D12*
%TO.C,R4*%
X121262500Y-101857258D02*
X121262500Y-101382742D01*
X120217500Y-101857258D02*
X120217500Y-101382742D01*
%TO.C,C28*%
X77715000Y-106438748D02*
X77715000Y-106961252D01*
X79185000Y-106438748D02*
X79185000Y-106961252D01*
%TO.C,C36*%
X76763748Y-95440000D02*
X77286252Y-95440000D01*
X76763748Y-96910000D02*
X77286252Y-96910000D01*
%TO.C,R22*%
X91522500Y-103937258D02*
X91522500Y-103462742D01*
X90477500Y-103937258D02*
X90477500Y-103462742D01*
%TO.C,U3*%
X95450000Y-89335000D02*
X93500000Y-89335000D01*
X95450000Y-84215000D02*
X97400000Y-84215000D01*
X95450000Y-89335000D02*
X98900000Y-89335000D01*
X95450000Y-84215000D02*
X93500000Y-84215000D01*
%TO.C,C1*%
X133779420Y-89100000D02*
X134060580Y-89100000D01*
X133779420Y-90120000D02*
X134060580Y-90120000D01*
D15*
%TO.C,J1*%
X69035000Y-98547500D02*
X69035000Y-108127500D01*
X74285000Y-98547500D02*
X73035000Y-98547500D01*
X74285000Y-108127500D02*
X73035000Y-108127500D01*
X69035000Y-108127500D02*
X70315000Y-108127500D01*
X70315000Y-98547500D02*
X69035000Y-98547500D01*
D12*
%TO.C,SW1*%
X128220000Y-110135000D02*
X129490000Y-110135000D01*
X134450000Y-106515000D02*
X134450000Y-107721667D01*
X134330000Y-106515000D02*
X134330000Y-107721667D01*
X129490000Y-110135000D02*
X129490000Y-106515000D01*
X134570000Y-106515000D02*
X133300000Y-106515000D01*
X129490000Y-106515000D02*
X128220000Y-106515000D01*
X132030000Y-110135000D02*
X132030000Y-106515000D01*
X136285000Y-104675000D02*
X134902000Y-104675000D01*
X131790000Y-106515000D02*
X131790000Y-107721667D01*
X128220000Y-106515000D02*
X128220000Y-110135000D01*
X126950000Y-106515000D02*
X125680000Y-106515000D01*
X130760000Y-106515000D02*
X130760000Y-110135000D01*
X130760000Y-110135000D02*
X132030000Y-110135000D01*
X133610000Y-106515000D02*
X133610000Y-107721667D01*
X125870000Y-106515000D02*
X125870000Y-107721667D01*
X128055000Y-111735000D02*
X127115000Y-111735000D01*
X129010000Y-106515000D02*
X129010000Y-107721667D01*
X133490000Y-106515000D02*
X133490000Y-107721667D01*
X126110000Y-106515000D02*
X126110000Y-107721667D01*
X131670000Y-106515000D02*
X131670000Y-107721667D01*
X132030000Y-106515000D02*
X130760000Y-106515000D01*
X128890000Y-106515000D02*
X128890000Y-107721667D01*
X133730000Y-106515000D02*
X133730000Y-107721667D01*
X126590000Y-106515000D02*
X126590000Y-107721667D01*
X134090000Y-106515000D02*
X134090000Y-107721667D01*
X125990000Y-106515000D02*
X125990000Y-107721667D01*
X128530000Y-106515000D02*
X128530000Y-107721667D01*
X125680000Y-106515000D02*
X125680000Y-110135000D01*
X133300000Y-110135000D02*
X134570000Y-110135000D01*
X130595000Y-111735000D02*
X129655000Y-111735000D01*
X133850000Y-106515000D02*
X133850000Y-107721667D01*
X131910000Y-106515000D02*
X131910000Y-107721667D01*
X125680000Y-110135000D02*
X126950000Y-110135000D01*
X133300000Y-106515000D02*
X133300000Y-110135000D01*
X133970000Y-106515000D02*
X133970000Y-107721667D01*
X125750000Y-106515000D02*
X125750000Y-107721667D01*
X129490000Y-107721667D02*
X128220000Y-107721667D01*
X133370000Y-106515000D02*
X133370000Y-107721667D01*
X124205000Y-104915000D02*
X124205000Y-111735000D01*
X129130000Y-106515000D02*
X129130000Y-107721667D01*
X126950000Y-110135000D02*
X126950000Y-106515000D01*
X125515000Y-111735000D02*
X124205000Y-111735000D01*
X129370000Y-106515000D02*
X129370000Y-107721667D01*
X126710000Y-106515000D02*
X126710000Y-107721667D01*
X136045000Y-111735000D02*
X134735000Y-111735000D01*
X131310000Y-106515000D02*
X131310000Y-107721667D01*
X133135000Y-111735000D02*
X132195000Y-111735000D01*
X131550000Y-106515000D02*
X131550000Y-107721667D01*
X126230000Y-106515000D02*
X126230000Y-107721667D01*
X128650000Y-106515000D02*
X128650000Y-107721667D01*
X134570000Y-110135000D02*
X134570000Y-106515000D01*
X133135000Y-104915000D02*
X132195000Y-104915000D01*
X134210000Y-106515000D02*
X134210000Y-107721667D01*
X130595000Y-104915000D02*
X129655000Y-104915000D01*
X130830000Y-106515000D02*
X130830000Y-107721667D01*
X134570000Y-107721667D02*
X133300000Y-107721667D01*
X126950000Y-107721667D02*
X125680000Y-107721667D01*
X131430000Y-106515000D02*
X131430000Y-107721667D01*
X128290000Y-106515000D02*
X128290000Y-107721667D01*
X128410000Y-106515000D02*
X128410000Y-107721667D01*
X136045000Y-104915000D02*
X134735000Y-104915000D01*
X136285000Y-104675000D02*
X136285000Y-106058000D01*
X126350000Y-106515000D02*
X126350000Y-107721667D01*
X131070000Y-106515000D02*
X131070000Y-107721667D01*
X126830000Y-106515000D02*
X126830000Y-107721667D01*
X132030000Y-107721667D02*
X130760000Y-107721667D01*
X128770000Y-106515000D02*
X128770000Y-107721667D01*
X129250000Y-106515000D02*
X129250000Y-107721667D01*
X128055000Y-104915000D02*
X127115000Y-104915000D01*
X136045000Y-104915000D02*
X136045000Y-111735000D01*
X125515000Y-104915000D02*
X124205000Y-104915000D01*
X130950000Y-106515000D02*
X130950000Y-107721667D01*
X131190000Y-106515000D02*
X131190000Y-107721667D01*
X126470000Y-106515000D02*
X126470000Y-107721667D01*
%TO.C,C26*%
X83285000Y-79909420D02*
X83285000Y-80190580D01*
X82265000Y-79909420D02*
X82265000Y-80190580D01*
%TO.C,C7*%
X115140000Y-79415580D02*
X115140000Y-79134420D01*
X116160000Y-79415580D02*
X116160000Y-79134420D01*
%TO.C,C21*%
X88440580Y-98460000D02*
X88159420Y-98460000D01*
X88440580Y-97440000D02*
X88159420Y-97440000D01*
%TO.C,U6*%
X86760000Y-79625000D02*
X86760000Y-78825000D01*
X83640000Y-79625000D02*
X83640000Y-78825000D01*
X86760000Y-79625000D02*
X86760000Y-80425000D01*
X83640000Y-79625000D02*
X83640000Y-81425000D01*
%TO.C,R32*%
X118112258Y-86447500D02*
X117637742Y-86447500D01*
X118112258Y-85402500D02*
X117637742Y-85402500D01*
%TO.C,R35*%
X115162258Y-85022500D02*
X114687742Y-85022500D01*
X115162258Y-83977500D02*
X114687742Y-83977500D01*
%TO.C,C29*%
X83285000Y-77215580D02*
X83285000Y-76934420D01*
X82265000Y-77215580D02*
X82265000Y-76934420D01*
%TO.C,R29*%
X133682742Y-96412500D02*
X134157258Y-96412500D01*
X133682742Y-97457500D02*
X134157258Y-97457500D01*
%TO.C,C22*%
X85590000Y-95309420D02*
X85590000Y-95590580D01*
X86610000Y-95309420D02*
X86610000Y-95590580D01*
%TO.C,C25*%
X85461252Y-83410000D02*
X84938748Y-83410000D01*
X85461252Y-81940000D02*
X84938748Y-81940000D01*
%TO.C,R11*%
X88537258Y-101422500D02*
X88062742Y-101422500D01*
X88537258Y-100377500D02*
X88062742Y-100377500D01*
%TO.C,C20*%
X88440580Y-98915000D02*
X88159420Y-98915000D01*
X88440580Y-99935000D02*
X88159420Y-99935000D01*
%TO.C,C2*%
X133779420Y-87625000D02*
X134060580Y-87625000D01*
X133779420Y-88645000D02*
X134060580Y-88645000D01*
%TO.C,R31*%
X133682742Y-93462500D02*
X134157258Y-93462500D01*
X133682742Y-94507500D02*
X134157258Y-94507500D01*
%TO.C,R43*%
X131897500Y-101912742D02*
X131897500Y-102387258D01*
X130852500Y-101912742D02*
X130852500Y-102387258D01*
%TO.C,R38*%
X126027500Y-75812742D02*
X126027500Y-76287258D01*
X127072500Y-75812742D02*
X127072500Y-76287258D01*
%TO.C,R3*%
X109472500Y-101847258D02*
X109472500Y-101372742D01*
X108427500Y-101847258D02*
X108427500Y-101372742D01*
%TO.C,C27*%
X84938748Y-77310000D02*
X85461252Y-77310000D01*
X84938748Y-75840000D02*
X85461252Y-75840000D01*
%TO.C,J3*%
X137395000Y-81345000D02*
X139995000Y-81345000D01*
X137395000Y-104265000D02*
X142595000Y-104265000D01*
X137395000Y-81345000D02*
X137395000Y-104265000D01*
X137395000Y-78745000D02*
X138725000Y-78745000D01*
X139995000Y-78745000D02*
X142595000Y-78745000D01*
X137395000Y-80075000D02*
X137395000Y-78745000D01*
X139995000Y-81345000D02*
X139995000Y-78745000D01*
X142595000Y-78745000D02*
X142595000Y-104265000D01*
%TO.C,R28*%
X133682742Y-97887500D02*
X134157258Y-97887500D01*
X133682742Y-98932500D02*
X134157258Y-98932500D01*
%TO.C,R5*%
X109897500Y-101857258D02*
X109897500Y-101382742D01*
X110942500Y-101857258D02*
X110942500Y-101382742D01*
%TO.C,D2*%
X75175000Y-73885000D02*
X77460000Y-73885000D01*
X77460000Y-73885000D02*
X77460000Y-72415000D01*
X77460000Y-72415000D02*
X75175000Y-72415000D01*
%TO.C,U9*%
X128720000Y-99070000D02*
X126770000Y-99070000D01*
X128720000Y-99070000D02*
X130670000Y-99070000D01*
X128720000Y-88950000D02*
X130670000Y-88950000D01*
X128720000Y-88950000D02*
X125270000Y-88950000D01*
%TO.C,C32*%
X77261252Y-89510000D02*
X76738748Y-89510000D01*
X77261252Y-88040000D02*
X76738748Y-88040000D01*
%TO.C,R7*%
X100802500Y-85762258D02*
X100802500Y-85287742D01*
X101847500Y-85762258D02*
X101847500Y-85287742D01*
%TO.C,U2*%
X114850000Y-105410000D02*
X112900000Y-105410000D01*
X114850000Y-100290000D02*
X116800000Y-100290000D01*
X114850000Y-105410000D02*
X116800000Y-105410000D01*
X114850000Y-100290000D02*
X111400000Y-100290000D01*
%TO.C,C24*%
X88440580Y-94190000D02*
X88159420Y-94190000D01*
X88440580Y-95210000D02*
X88159420Y-95210000D01*
%TO.C,R17*%
X101987258Y-98072500D02*
X101512742Y-98072500D01*
X101987258Y-97027500D02*
X101512742Y-97027500D01*
%TO.C,R45*%
X91462742Y-82302500D02*
X91937258Y-82302500D01*
X91462742Y-83347500D02*
X91937258Y-83347500D01*
%TO.C,R41*%
X126722500Y-101912742D02*
X126722500Y-102387258D01*
X125677500Y-101912742D02*
X125677500Y-102387258D01*
%TO.C,R14*%
X101987258Y-102522500D02*
X101512742Y-102522500D01*
X101987258Y-101477500D02*
X101512742Y-101477500D01*
%TO.C,FB1*%
X76738748Y-86835000D02*
X78161252Y-86835000D01*
X76738748Y-85015000D02*
X78161252Y-85015000D01*
%TO.C,R1*%
X110862742Y-85427500D02*
X111337258Y-85427500D01*
X110862742Y-86472500D02*
X111337258Y-86472500D01*
%TO.C,R2*%
X122722500Y-101857258D02*
X122722500Y-101382742D01*
X121677500Y-101857258D02*
X121677500Y-101382742D01*
%TO.C,R42*%
X128252500Y-101912742D02*
X128252500Y-102387258D01*
X129297500Y-101912742D02*
X129297500Y-102387258D01*
%TO.C,R23*%
X91977500Y-103937258D02*
X91977500Y-103462742D01*
X93022500Y-103937258D02*
X93022500Y-103462742D01*
%TO.C,C4*%
X133779420Y-93045000D02*
X134060580Y-93045000D01*
X133779420Y-92025000D02*
X134060580Y-92025000D01*
%TO.C,C5*%
X133779420Y-91570000D02*
X134060580Y-91570000D01*
X133779420Y-90550000D02*
X134060580Y-90550000D01*
%TO.C,R36*%
X73262258Y-72627500D02*
X72787742Y-72627500D01*
X73262258Y-73672500D02*
X72787742Y-73672500D01*
%TO.C,J4*%
X95845000Y-73505000D02*
X93245000Y-73505000D01*
X95845000Y-76105000D02*
X118765000Y-76105000D01*
X95845000Y-76105000D02*
X95845000Y-73505000D01*
X93245000Y-73505000D02*
X93245000Y-70905000D01*
X93245000Y-76105000D02*
X93245000Y-74775000D01*
X94575000Y-76105000D02*
X93245000Y-76105000D01*
X93245000Y-70905000D02*
X118765000Y-70905000D01*
X118765000Y-76105000D02*
X118765000Y-70905000D01*
%TO.C,R26*%
X107992500Y-100397258D02*
X107992500Y-99922742D01*
X106947500Y-100397258D02*
X106947500Y-99922742D01*
%TO.C,R20*%
X87477500Y-103937258D02*
X87477500Y-103462742D01*
X88522500Y-103937258D02*
X88522500Y-103462742D01*
%TO.C,SW4*%
X108060000Y-78175000D02*
X108060000Y-81875000D01*
X101940000Y-81875000D02*
X101940000Y-78175000D01*
X101940000Y-78175000D02*
X108060000Y-78175000D01*
X108060000Y-81875000D02*
X101940000Y-81875000D01*
%TO.C,R34*%
X118087258Y-85022500D02*
X117612742Y-85022500D01*
X118087258Y-83977500D02*
X117612742Y-83977500D01*
%TO.C,D3*%
X127315000Y-71615000D02*
X127315000Y-73900000D01*
X128785000Y-73900000D02*
X128785000Y-71615000D01*
X128785000Y-71615000D02*
X127315000Y-71615000D01*
%TO.C,D5*%
X125785000Y-71615000D02*
X124315000Y-71615000D01*
X124315000Y-71615000D02*
X124315000Y-73900000D01*
X125785000Y-73900000D02*
X125785000Y-71615000D01*
%TO.C,R25*%
X95027500Y-103937258D02*
X95027500Y-103462742D01*
X96072500Y-103937258D02*
X96072500Y-103462742D01*
%TO.C,J5*%
X93245000Y-112105000D02*
X93245000Y-110775000D01*
X93245000Y-109505000D02*
X93245000Y-106905000D01*
X95845000Y-112105000D02*
X118765000Y-112105000D01*
X95845000Y-109505000D02*
X93245000Y-109505000D01*
X118765000Y-112105000D02*
X118765000Y-106905000D01*
X94575000Y-112105000D02*
X93245000Y-112105000D01*
X95845000Y-112105000D02*
X95845000Y-109505000D01*
X93245000Y-106905000D02*
X118765000Y-106905000D01*
%TO.C,R40*%
X123027500Y-75837742D02*
X123027500Y-76312258D01*
X124072500Y-75837742D02*
X124072500Y-76312258D01*
D11*
%TO.C,U10*%
X119875000Y-78925000D02*
X119575000Y-78925000D01*
X119875000Y-82275000D02*
X119575000Y-82275000D01*
X116525000Y-82275000D02*
X116525000Y-78925000D01*
X116525000Y-78925000D02*
X116825000Y-78925000D01*
X119875000Y-82275000D02*
X119875000Y-78925000D01*
X116750000Y-82275000D02*
X116750000Y-83500000D01*
X116525000Y-82275000D02*
X116750000Y-82275000D01*
D12*
%TO.C,R21*%
X90022500Y-103937258D02*
X90022500Y-103462742D01*
X88977500Y-103937258D02*
X88977500Y-103462742D01*
%TO.C,U4*%
X85100000Y-89750000D02*
X85100000Y-93050000D01*
X85100000Y-93050000D02*
X89100000Y-93050000D01*
%TO.C,C33*%
X78940000Y-89390580D02*
X78940000Y-89109420D01*
X79960000Y-89390580D02*
X79960000Y-89109420D01*
%TO.C,C19*%
X98105580Y-91660000D02*
X97824420Y-91660000D01*
X98105580Y-90640000D02*
X97824420Y-90640000D01*
%TO.C,D1*%
X75050000Y-84925000D02*
X71150000Y-84925000D01*
X75050000Y-86925000D02*
X75050000Y-84925000D01*
X75050000Y-86925000D02*
X71150000Y-86925000D01*
%TO.C,R15*%
X101987258Y-99977500D02*
X101512742Y-99977500D01*
X101987258Y-101022500D02*
X101512742Y-101022500D01*
%TO.C,R8*%
X103702500Y-85762258D02*
X103702500Y-85287742D01*
X104747500Y-85762258D02*
X104747500Y-85287742D01*
%TO.C,C17*%
X83690000Y-91059420D02*
X83690000Y-91340580D01*
X84710000Y-91059420D02*
X84710000Y-91340580D01*
%TO.C,C16*%
X87140580Y-107590000D02*
X86859420Y-107590000D01*
X87140580Y-108610000D02*
X86859420Y-108610000D01*
%TO.C,R27*%
X109927258Y-99922500D02*
X109452742Y-99922500D01*
X109927258Y-98877500D02*
X109452742Y-98877500D01*
%TO.C,R16*%
X101962258Y-99572500D02*
X101487742Y-99572500D01*
X101962258Y-98527500D02*
X101487742Y-98527500D01*
%TO.C,SW2*%
X86635000Y-112950000D02*
X80515000Y-112950000D01*
X80515000Y-109250000D02*
X86635000Y-109250000D01*
X86635000Y-109250000D02*
X86635000Y-112950000D01*
X80515000Y-112950000D02*
X80515000Y-109250000D01*
%TO.C,R13*%
X101962258Y-102927500D02*
X101487742Y-102927500D01*
X101962258Y-103972500D02*
X101487742Y-103972500D01*
%TO.C,R37*%
X128572500Y-75837742D02*
X128572500Y-76312258D01*
X127527500Y-75837742D02*
X127527500Y-76312258D01*
%TO.C,C23*%
X85565000Y-98559420D02*
X85565000Y-98840580D01*
X86585000Y-98559420D02*
X86585000Y-98840580D01*
%TO.C,C30*%
X80410000Y-92761252D02*
X80410000Y-92238748D01*
X78940000Y-92761252D02*
X78940000Y-92238748D01*
%TO.C,L1*%
X131095279Y-88645000D02*
X130769721Y-88645000D01*
X131095279Y-87625000D02*
X130769721Y-87625000D01*
%TO.C,R19*%
X102037258Y-95072500D02*
X101562742Y-95072500D01*
X102037258Y-94027500D02*
X101562742Y-94027500D01*
%TO.C,R12*%
X88087742Y-95652500D02*
X88562258Y-95652500D01*
X88087742Y-96697500D02*
X88562258Y-96697500D01*
%TO.C,R24*%
X94522500Y-103937258D02*
X94522500Y-103462742D01*
X93477500Y-103937258D02*
X93477500Y-103462742D01*
%TO.C,D6*%
X124285000Y-73900000D02*
X124285000Y-71615000D01*
X124285000Y-71615000D02*
X122815000Y-71615000D01*
X122815000Y-71615000D02*
X122815000Y-73900000D01*
%TO.C,SW3*%
X98210000Y-81875000D02*
X92090000Y-81875000D01*
X98210000Y-78175000D02*
X98210000Y-81875000D01*
X92090000Y-81875000D02*
X92090000Y-78175000D01*
X92090000Y-78175000D02*
X98210000Y-78175000D01*
%TO.C,U11*%
X75025000Y-89915000D02*
X73075000Y-89915000D01*
X75025000Y-95035000D02*
X78475000Y-95035000D01*
X75025000Y-89915000D02*
X76975000Y-89915000D01*
X75025000Y-95035000D02*
X73075000Y-95035000D01*
%TO.C,C13*%
X113665000Y-82415580D02*
X113665000Y-82134420D01*
X114685000Y-82415580D02*
X114685000Y-82134420D01*
%TO.C,U5*%
X99610000Y-92390000D02*
X99610000Y-92865000D01*
X90865000Y-92390000D02*
X90390000Y-92390000D01*
X99135000Y-101610000D02*
X99610000Y-101610000D01*
X99610000Y-101610000D02*
X99610000Y-101135000D01*
X90390000Y-101610000D02*
X90390000Y-101135000D01*
X90865000Y-101610000D02*
X90390000Y-101610000D01*
X99135000Y-92390000D02*
X99610000Y-92390000D01*
%TO.C,R44*%
X133452500Y-101887742D02*
X133452500Y-102362258D01*
X134497500Y-101887742D02*
X134497500Y-102362258D01*
%TO.C,R18*%
X102012258Y-95527500D02*
X101537742Y-95527500D01*
X102012258Y-96572500D02*
X101537742Y-96572500D01*
%TO.C,C37*%
X79985000Y-95815580D02*
X79985000Y-95534420D01*
X78965000Y-95815580D02*
X78965000Y-95534420D01*
%TO.C,U1*%
X110475000Y-88875000D02*
X110475000Y-97025000D01*
X111575000Y-87775000D02*
X119725000Y-87775000D01*
X110475000Y-97025000D02*
X119725000Y-97025000D01*
X119725000Y-87775000D02*
X119725000Y-97025000D01*
%TO.C,R30*%
X133682742Y-94937500D02*
X134157258Y-94937500D01*
X133682742Y-95982500D02*
X134157258Y-95982500D01*
%TO.C,D4*%
X127285000Y-71615000D02*
X125815000Y-71615000D01*
X125815000Y-71615000D02*
X125815000Y-73900000D01*
X127285000Y-73900000D02*
X127285000Y-71615000D01*
%TO.C,R9*%
X90512742Y-90972500D02*
X90987258Y-90972500D01*
X90512742Y-89927500D02*
X90987258Y-89927500D01*
%TO.C,R33*%
X114662742Y-86447500D02*
X115137258Y-86447500D01*
X114662742Y-85402500D02*
X115137258Y-85402500D01*
%TO.C,R39*%
X125572500Y-75825242D02*
X125572500Y-76299758D01*
X124527500Y-75825242D02*
X124527500Y-76299758D01*
%TO.C,C15*%
X107960000Y-87740580D02*
X107960000Y-87459420D01*
X106940000Y-87740580D02*
X106940000Y-87459420D01*
%TD*%
M02*
